<svg xmlns="http://www.w3.org/2000/svg" viewBox="0 0 1600 1000" width="1600" height="1000">
<path d="M461.5 430.0 L460.7 431.3 L459.4 432.4 L457.7 433.4 L455.8 434.3 L453.8 435.0 L451.9 435.6 L450.2 436.1 L448.8 436.5 L447.6 437.0 L446.7 437.5 L445.9 438.1 L445.1 438.6 L444.4 439.1 L443.5 439.5 L442.4 439.7 L441.2 439.7 L439.8 439.5 L438.4 439.1 L437.0 438.4 L435.7 437.7 L434.6 437.0 L433.6 436.4 L433.0 436.1 L432.5 436.1 L432.2 436.5 L432.0 437.3 L431.7 438.6 L431.4 440.1 L430.8 441.9 L430.0 443.8 L429.0 445.5 L427.7 447.1 L426.3 448.4 L424.8 449.3 L423.2 449.8 L421.8 449.9 L420.4 449.7 L419.1 449.2 L417.8 448.7 L416.7 448.1 L415.5 447.5 L414.2 447.0 L412.9 446.6 L411.4 446.2 L409.9 445.8 L408.3 445.3 L406.8 444.7 L405.6 443.9 L404.6 442.9 L404.1 441.7 L404.2 440.3 L404.7 438.8 L405.8 437.3 L407.4 435.8 L409.2 434.4 L411.1 433.1 L413.0 432.1 L414.7 431.3 L416.0 430.6 L416.8 430.0 L417.2 429.5 L417.1 428.9 L416.7 428.3 L416.0 427.7 L415.2 426.9 L414.6 426.1 L414.1 425.2 L413.9 424.4 L414.0 423.6 L414.4 422.9 L415.0 422.4 L415.8 421.9 L416.6 421.5 L417.4 421.1 L418.1 420.7 L418.6 420.1 L418.9 419.3 L419.1 418.3 L419.3 417.1 L419.4 415.7 L419.7 414.2 L420.2 412.8 L420.9 411.5 L421.9 410.5 L423.1 409.9 L424.5 409.6 L425.9 409.8 L427.4 410.4 L428.8 411.4 L430.0 412.5 L431.1 413.8 L432.0 415.0 L432.8 416.0 L433.6 416.8 L434.4 417.3 L435.2 417.5 L436.2 417.4 L437.3 417.2 L438.5 416.9 L439.8 416.7 L441.2 416.5 L442.5 416.6 L443.6 416.9 L444.5 417.4 L445.2 418.1 L445.7 418.9 L446.0 419.9 L446.3 420.7 L446.6 421.6 L447.0 422.3 L447.7 422.9 L448.7 423.5 L450.0 424.0 L451.5 424.5 L453.3 425.1 L455.1 425.8 L456.7 426.7 L458.1 427.7 L459.0 428.8 L459.4 430.0 Z" fill="none" stroke="#7d6a4f" stroke-width="1.6" stroke-opacity="0.55"></path>
<path d="M491.0 430.0 L488.3 432.4 L485.4 434.6 L482.6 436.5 L480.1 438.3 L478.0 440.1 L476.3 441.8 L475.0 443.5 L474.0 445.3 L473.1 447.2 L472.1 449.0 L470.9 450.8 L469.4 452.4 L467.5 453.8 L465.3 454.8 L462.7 455.6 L460.0 456.1 L457.3 456.4 L454.7 456.6 L452.3 456.9 L450.3 457.5 L448.5 458.5 L447.0 459.9 L445.7 462.0 L444.3 464.5 L442.8 467.5 L441.1 470.7 L438.9 474.0 L436.3 477.1 L433.3 479.8 L430.0 482.0 L426.4 483.4 L422.7 484.2 L419.0 484.2 L415.5 483.6 L412.0 482.4 L408.8 481.0 L405.8 479.4 L402.9 477.7 L400.0 476.1 L397.1 474.6 L394.2 473.1 L391.2 471.7 L388.3 470.3 L385.6 468.6 L383.1 466.7 L381.1 464.5 L379.7 461.9 L379.1 459.0 L379.2 455.8 L380.1 452.5 L381.7 449.2 L383.8 446.1 L386.2 443.2 L388.5 440.6 L390.5 438.3 L392.0 436.3 L392.8 434.6 L392.9 433.1 L392.2 431.6 L390.9 430.0 L389.3 428.3 L387.4 426.5 L385.6 424.5 L384.1 422.4 L383.1 420.2 L382.6 417.9 L382.7 415.8 L383.3 413.7 L384.2 411.8 L385.5 409.9 L386.8 408.0 L388.0 406.1 L389.1 404.1 L390.0 401.8 L390.8 399.3 L391.5 396.5 L392.3 393.5 L393.3 390.4 L394.7 387.4 L396.5 384.7 L398.9 382.3 L401.8 380.5 L405.2 379.4 L408.9 379.1 L412.7 379.4 L416.5 380.4 L420.3 381.9 L423.8 383.7 L427.0 385.5 L430.0 387.2 L432.8 388.6 L435.4 389.7 L438.0 390.4 L440.7 390.7 L443.5 390.7 L446.3 390.6 L449.3 390.6 L452.3 390.8 L455.2 391.3 L457.9 392.2 L460.3 393.5 L462.3 395.2 L464.0 397.1 L465.4 399.2 L466.7 401.3 L467.8 403.3 L469.1 405.2 L470.7 406.9 L472.6 408.3 L475.0 409.7 L477.7 411.0 L480.8 412.3 L484.0 413.8 L487.0 415.5 L489.7 417.5 L491.8 419.7 L493.1 422.2 L493.5 424.8 L492.9 427.4 L491.5 430.0 Z" fill="none" stroke="#7d6a4f" stroke-width="0.9" stroke-opacity="0.32"></path>
<path d="M515.1 430.0 L512.8 433.4 L510.9 436.7 L509.6 439.9 L508.9 443.1 L508.5 446.5 L508.2 449.9 L507.9 453.4 L507.1 456.9 L505.9 460.3 L503.9 463.4 L501.3 466.2 L498.1 468.7 L494.4 470.8 L490.4 472.6 L486.5 474.2 L482.7 475.8 L479.2 477.5 L476.1 479.7 L473.4 482.3 L471.0 485.5 L468.6 489.3 L466.2 493.6 L463.4 498.2 L460.2 502.8 L456.4 507.1 L452.0 511.0 L447.0 514.0 L441.6 516.0 L435.8 517.0 L430.0 517.0 L424.2 516.0 L418.7 514.2 L413.4 511.9 L408.5 509.3 L403.8 506.6 L399.3 504.0 L394.9 501.6 L390.5 499.4 L386.2 497.3 L381.9 495.2 L377.7 493.0 L373.8 490.5 L370.4 487.6 L367.7 484.2 L365.7 480.3 L364.6 476.1 L364.4 471.5 L365.1 466.9 L366.3 462.4 L367.9 458.1 L369.5 454.1 L370.7 450.7 L371.2 447.7 L370.9 445.0 L369.5 442.7 L367.2 440.4 L364.0 438.2 L360.2 435.7 L356.0 433.0 L352.0 430.0 L348.3 426.7 L345.4 423.0 L343.3 419.2 L342.1 415.4 L341.8 411.5 L342.3 407.7 L343.4 404.0 L344.8 400.3 L346.4 396.6 L347.8 392.9 L349.2 388.9 L350.4 384.8 L351.6 380.3 L353.0 375.7 L354.7 371.0 L356.9 366.5 L359.9 362.2 L363.6 358.5 L368.2 355.6 L373.6 353.5 L379.6 352.6 L386.0 352.6 L392.5 353.6 L399.0 355.3 L405.2 357.5 L411.0 359.9 L416.3 362.3 L421.2 364.3 L425.7 365.9 L430.0 367.0 L434.2 367.5 L438.4 367.6 L442.7 367.4 L447.0 367.3 L451.5 367.3 L455.9 367.7 L460.1 368.6 L464.1 370.0 L467.8 372.0 L471.1 374.3 L474.0 377.0 L476.7 379.7 L479.3 382.4 L482.0 384.8 L485.0 386.9 L488.5 388.7 L492.6 390.3 L497.2 391.8 L502.3 393.2 L507.7 394.9 L513.0 396.9 L517.9 399.4 L522.2 402.3 L525.4 405.7 L527.5 409.5 L528.4 413.6 L528.0 417.9 L526.5 422.1 L524.2 426.1 L521.5 430.0 Z" fill="none" stroke="#7d6a4f" stroke-width="0.9" stroke-opacity="0.32"></path>
<path d="M549.2 430.0 L549.3 434.9 L549.7 439.8 L550.3 444.9 L550.8 450.1 L550.7 455.3 L549.9 460.5 L548.1 465.5 L545.2 470.1 L541.3 474.4 L536.7 478.2 L531.5 481.6 L526.0 484.6 L520.7 487.5 L515.7 490.4 L511.2 493.6 L507.3 497.2 L503.9 501.4 L500.7 506.2 L497.6 511.5 L494.3 517.1 L490.5 522.9 L486.0 528.4 L480.7 533.3 L474.6 537.3 L467.7 540.2 L460.4 541.8 L452.7 542.1 L444.9 541.2 L437.3 539.3 L430.0 536.8 L423.1 533.8 L416.5 530.7 L410.2 527.8 L404.2 525.1 L398.2 522.8 L392.3 520.8 L386.4 519.0 L380.5 517.1 L374.7 514.9 L369.3 512.3 L364.4 509.1 L360.2 505.2 L356.9 500.6 L354.5 495.6 L353.0 490.3 L352.1 484.9 L351.7 479.6 L351.3 474.8 L350.5 470.4 L349.1 466.6 L346.6 463.2 L343.1 460.3 L338.3 457.6 L332.5 454.8 L325.9 451.8 L319.0 448.5 L312.2 444.6 L306.0 440.2 L300.7 435.3 L296.6 430.0 L293.9 424.4 L292.6 418.7 L292.5 413.0 L293.5 407.3 L295.1 401.7 L297.1 396.2 L299.3 390.7 L301.4 385.2 L303.4 379.5 L305.4 373.7 L307.5 367.8 L310.0 361.8 L313.1 355.9 L317.1 350.5 L322.2 345.6 L328.3 341.6 L335.5 338.7 L343.7 337.0 L352.5 336.6 L361.6 337.3 L370.7 338.9 L379.5 341.2 L387.7 343.8 L395.3 346.4 L402.2 348.7 L408.4 350.3 L414.0 351.2 L419.4 351.3 L424.7 350.7 L430.0 349.7 L435.5 348.5 L441.1 347.3 L446.9 346.6 L452.7 346.3 L458.5 346.8 L464.1 347.9 L469.4 349.7 L474.4 351.9 L479.3 354.3 L484.1 356.7 L489.0 358.9 L494.3 360.8 L500.1 362.3 L506.5 363.5 L513.6 364.5 L521.4 365.6 L529.5 367.0 L537.6 368.8 L545.4 371.3 L552.5 374.6 L558.5 378.8 L563.0 383.7 L565.9 389.2 L567.2 395.1 L566.9 401.3 L565.5 407.5 L563.1 413.5 L560.4 419.3 L557.6 424.8 L555.1 430.0 Z" fill="none" stroke="#7d6a4f" stroke-width="0.9" stroke-opacity="0.32"></path>
<path d="M590.9 430.0 L591.9 436.6 L592.3 443.4 L591.8 450.1 L590.0 456.6 L587.0 462.9 L582.6 468.8 L577.1 474.2 L570.9 479.1 L564.2 483.5 L557.6 487.7 L551.4 491.7 L545.9 495.9 L541.2 500.4 L537.2 505.6 L533.9 511.3 L530.9 517.7 L527.9 524.6 L524.4 531.7 L520.1 538.6 L514.9 545.1 L508.6 550.7 L501.2 555.2 L492.9 558.3 L483.9 559.9 L474.6 560.2 L465.1 559.2 L455.8 557.5 L446.8 555.2 L438.2 552.8 L430.0 550.6 L422.0 548.7 L414.2 547.4 L406.4 546.4 L398.6 545.8 L390.6 545.1 L382.6 544.2 L374.7 542.7 L367.1 540.5 L360.1 537.3 L353.8 533.2 L348.4 528.3 L343.9 522.8 L340.1 516.9 L336.9 510.9 L333.9 505.2 L330.7 500.0 L326.8 495.4 L322.1 491.3 L316.2 487.8 L309.1 484.6 L301.0 481.5 L292.0 478.1 L282.6 474.3 L273.4 469.8 L264.9 464.6 L257.5 458.7 L251.8 452.1 L247.8 445.0 L245.7 437.6 L245.4 430.0 L246.4 422.5 L248.6 415.1 L251.4 407.9 L254.5 400.8 L257.6 393.8 L260.5 386.9 L263.3 379.9 L266.1 372.9 L269.1 365.8 L272.7 358.9 L277.2 352.3 L282.8 346.3 L289.8 341.2 L298.1 337.1 L307.6 334.2 L318.0 332.7 L329.0 332.4 L340.1 333.1 L350.9 334.6 L361.0 336.5 L370.3 338.3 L378.6 339.7 L386.0 340.3 L392.6 340.0 L398.7 338.6 L404.5 336.3 L410.4 333.3 L416.5 329.8 L423.1 326.4 L430.0 323.2 L437.3 320.7 L444.9 319.0 L452.6 318.3 L460.3 318.4 L467.9 319.2 L475.5 320.5 L483.0 322.0 L490.6 323.5 L498.5 324.7 L507.0 325.6 L516.1 326.3 L525.8 326.8 L536.2 327.3 L547.1 328.2 L558.0 329.8 L568.6 332.3 L578.4 336.0 L586.9 340.8 L593.7 346.8 L598.5 353.8 L601.4 361.7 L602.3 370.0 L601.5 378.5 L599.5 386.9 L596.7 395.1 L593.5 402.8 L590.6 410.1 L588.2 417.0 L586.5 423.6 L585.4 430.0 Z" fill="none" stroke="#7d6a4f" stroke-width="0.9" stroke-opacity="0.32"></path>
<path d="M620.6 430.0 L619.5 437.8 L616.9 445.4 L612.9 452.7 L607.6 459.5 L601.4 465.9 L594.6 471.9 L587.9 477.4 L581.6 482.8 L576.2 488.3 L571.9 494.1 L568.8 500.5 L566.5 507.6 L564.9 515.5 L563.4 524.0 L561.6 533.0 L559.0 542.1 L555.1 550.9 L549.7 559.0 L542.8 566.0 L534.5 571.6 L524.8 575.7 L514.3 578.2 L503.3 579.5 L492.1 579.6 L481.1 579.1 L470.3 578.3 L459.9 577.6 L449.8 577.2 L439.9 577.4 L430.0 578.0 L420.0 578.9 L409.9 579.9 L399.5 580.5 L389.1 580.5 L378.8 579.5 L368.9 577.3 L359.5 573.7 L350.9 569.0 L343.3 563.2 L336.5 556.8 L330.4 550.0 L324.8 543.3 L319.3 537.0 L313.4 531.4 L306.8 526.4 L299.2 522.2 L290.4 518.5 L280.5 515.0 L269.8 511.4 L258.7 507.4 L247.7 502.7 L237.5 497.1 L228.5 490.5 L221.3 483.1 L216.1 474.8 L213.2 466.1 L212.3 457.0 L213.2 447.8 L215.5 438.8 L218.6 430.0 L222.0 421.5 L225.4 413.2 L228.6 405.0 L231.3 397.0 L233.8 388.9 L236.3 380.8 L239.2 372.7 L243.0 364.8 L247.8 357.4 L254.2 350.6 L262.1 344.7 L271.5 339.9 L282.2 336.3 L293.7 334.0 L305.6 332.7 L317.4 332.2 L328.6 332.0 L338.9 331.9 L348.1 331.3 L356.1 329.8 L363.1 327.2 L369.4 323.5 L375.3 318.6 L381.3 312.8 L387.7 306.4 L394.7 299.9 L402.4 293.8 L411.0 288.4 L420.2 284.0 L430.0 280.9 L440.1 278.9 L450.4 278.1 L460.7 278.2 L471.1 278.8 L481.5 279.7 L492.1 280.5 L503.0 281.2 L514.4 281.6 L526.4 281.9 L539.0 282.3 L551.9 283.1 L564.9 284.7 L577.6 287.4 L589.4 291.4 L599.9 297.1 L608.5 304.2 L615.0 312.8 L619.1 322.5 L621.0 332.9 L620.8 343.8 L619.1 354.6 L616.2 365.1 L612.9 375.0 L609.7 384.3 L607.1 392.9 L605.3 400.8 L604.5 408.4 L604.4 415.7 L605.0 422.8 L605.6 430.0 Z" fill="none" stroke="#7d6a4f" stroke-width="1.6" stroke-opacity="0.55"></path>
<path d="M633.6 430.0 L630.4 438.2 L626.1 446.1 L621.2 453.7 L616.2 461.0 L611.7 468.1 L608.2 475.3 L605.9 482.8 L605.0 491.0 L605.3 499.9 L606.4 509.7 L607.8 520.3 L608.8 531.7 L608.8 543.3 L607.3 554.9 L603.8 566.0 L598.1 576.1 L590.2 584.8 L580.4 592.0 L569.0 597.5 L556.4 601.3 L543.2 603.9 L529.8 605.4 L516.6 606.5 L503.6 607.3 L491.1 608.4 L478.8 609.8 L466.8 611.7 L454.7 613.8 L442.5 616.0 L430.0 617.8 L417.4 618.8 L404.7 618.6 L392.2 617.0 L380.1 613.8 L368.7 609.0 L358.2 602.8 L348.7 595.7 L340.2 587.9 L332.3 580.1 L324.7 572.7 L317.1 566.0 L309.0 560.3 L300.1 555.5 L290.2 551.5 L279.1 548.1 L267.1 544.8 L254.5 541.2 L241.9 536.9 L229.8 531.7 L218.9 525.4 L209.7 517.8 L202.6 509.2 L197.8 499.8 L195.2 489.7 L194.6 479.4 L195.5 469.0 L197.4 458.8 L199.7 448.9 L201.9 439.4 L203.7 430.0 L204.9 420.8 L205.5 411.5 L205.9 402.2 L206.5 392.8 L207.8 383.4 L210.3 374.1 L214.4 365.2 L220.4 357.0 L228.3 349.6 L237.9 343.2 L248.8 337.9 L260.6 333.7 L272.6 330.3 L284.3 327.3 L295.1 324.4 L304.8 321.2 L313.2 317.1 L320.5 312.0 L326.8 305.7 L332.7 298.1 L338.6 289.6 L344.9 280.5 L352.1 271.2 L360.4 262.3 L369.8 254.3 L380.5 247.6 L392.0 242.4 L404.3 238.9 L417.1 236.8 L430.0 236.1 L443.0 236.3 L455.9 237.1 L468.9 238.0 L481.9 238.9 L495.2 239.6 L508.8 240.1 L522.9 240.7 L537.2 241.6 L551.6 243.3 L565.6 246.2 L578.9 250.5 L591.0 256.6 L601.2 264.5 L609.4 274.1 L615.1 285.2 L618.4 297.2 L619.5 309.9 L618.9 322.6 L617.0 335.0 L614.6 346.6 L612.3 357.3 L610.7 367.1 L610.1 375.9 L610.9 384.0 L612.8 391.7 L615.8 399.1 L619.2 406.5 L622.7 414.2 L625.6 422.0 L627.5 430.0 Z" fill="none" stroke="#7d6a4f" stroke-width="0.9" stroke-opacity="0.32"></path>
<path d="M654.7 430.0 L653.2 439.2 L651.9 448.3 L651.5 457.5 L652.3 467.0 L654.5 477.1 L658.0 488.0 L662.3 499.8 L666.9 512.5 L671.0 526.1 L673.9 540.2 L674.8 554.4 L673.2 568.3 L668.7 581.3 L661.2 592.9 L651.0 602.9 L638.3 611.1 L623.9 617.4 L608.2 622.0 L592.0 625.3 L575.8 627.6 L559.9 629.5 L544.6 631.4 L529.8 633.4 L515.5 635.8 L501.4 638.5 L487.4 641.3 L473.2 643.7 L458.9 645.3 L444.4 645.7 L430.0 644.6 L415.8 641.7 L402.2 637.1 L389.3 630.9 L377.5 623.5 L366.5 615.3 L356.5 607.1 L347.0 599.2 L337.7 592.3 L328.1 586.5 L317.8 582.0 L306.5 578.8 L294.1 576.4 L280.5 574.5 L266.0 572.6 L251.1 570.0 L236.4 566.4 L222.5 561.5 L210.0 555.1 L199.5 547.1 L191.2 537.9 L185.2 527.6 L181.3 516.7 L179.0 505.4 L177.9 494.1 L177.2 483.0 L176.6 472.2 L175.5 461.6 L173.7 451.1 L171.2 440.6 L168.4 430.0 L165.6 419.2 L163.6 408.1 L162.8 396.9 L163.9 385.7 L167.2 374.9 L173.0 364.6 L181.1 355.2 L191.1 346.8 L202.6 339.3 L214.8 332.8 L227.0 326.8 L238.6 321.2 L249.2 315.4 L258.3 309.0 L266.2 301.8 L272.9 293.4 L278.9 284.0 L284.7 273.5 L291.0 262.4 L298.1 251.2 L306.6 240.4 L316.5 230.5 L328.0 222.1 L340.9 215.4 L354.9 210.7 L369.6 207.8 L384.8 206.5 L400.0 206.5 L415.1 207.3 L430.0 208.4 L444.8 209.5 L459.5 210.4 L474.3 210.9 L489.4 211.3 L504.7 211.8 L520.1 213.0 L535.4 215.2 L550.1 218.8 L563.9 224.3 L576.2 231.8 L586.7 241.2 L594.9 252.4 L600.9 264.9 L604.7 278.1 L606.7 291.7 L607.6 304.9 L607.8 317.3 L608.2 328.7 L609.4 338.8 L611.8 347.9 L615.8 355.9 L621.4 363.3 L628.3 370.4 L636.1 377.6 L644.2 385.1 L651.9 393.1 L658.7 401.7 L664.0 410.8 L667.7 420.3 L669.8 430.0 Z" fill="none" stroke="#7d6a4f" stroke-width="0.9" stroke-opacity="0.32"></path>
<path d="M706.9 430.0 L710.5 441.5 L715.3 453.5 L721.3 466.1 L728.0 479.6 L735.0 494.0 L741.3 509.2 L746.3 525.0 L748.9 541.1 L748.5 557.0 L744.5 572.1 L736.9 586.0 L725.8 598.2 L711.5 608.4 L694.7 616.6 L676.3 622.8 L657.0 627.3 L637.6 630.7 L618.7 633.3 L600.6 635.6 L583.4 638.0 L567.2 640.7 L551.6 643.8 L536.5 647.0 L521.4 650.2 L506.3 652.8 L490.9 654.4 L475.4 654.6 L460.0 653.1 L444.7 649.8 L430.0 644.9 L416.0 638.7 L402.9 631.7 L390.6 624.6 L379.0 617.9 L367.6 612.3 L356.1 608.1 L343.9 605.5 L330.7 604.5 L316.3 604.7 L300.4 605.6 L283.4 606.7 L265.5 607.2 L247.3 606.6 L229.5 604.3 L212.7 600.0 L197.6 593.7 L184.6 585.5 L173.8 575.6 L165.3 564.5 L158.6 552.6 L153.4 540.3 L149.0 527.9 L144.8 515.7 L140.3 503.7 L135.4 491.8 L129.8 479.9 L123.9 467.9 L118.1 455.7 L113.1 443.0 L109.5 430.0 L108.1 416.8 L109.3 403.6 L113.4 390.8 L120.4 378.5 L130.1 367.1 L141.7 356.7 L154.6 347.3 L168.0 338.7 L180.9 330.7 L192.8 322.8 L203.2 314.7 L212.0 306.0 L219.2 296.4 L225.4 285.8 L230.9 274.2 L236.7 262.0 L243.2 249.5 L251.1 237.2 L260.6 225.9 L272.1 215.9 L285.3 207.7 L300.0 201.6 L315.9 197.4 L332.4 194.9 L349.2 193.9 L365.9 193.9 L382.3 194.2 L398.4 194.4 L414.2 194.3 L430.0 193.7 L445.9 192.7 L462.0 191.5 L478.4 190.6 L495.0 190.6 L511.5 192.1 L527.4 195.3 L542.4 200.7 L556.1 208.4 L567.9 218.1 L577.9 229.6 L585.8 242.2 L592.1 255.4 L597.2 268.4 L601.6 280.9 L606.1 292.2 L611.3 302.2 L617.9 310.9 L626.0 318.5 L635.9 325.3 L647.3 331.8 L659.8 338.4 L672.7 345.4 L685.4 353.3 L697.0 362.1 L707.0 371.9 L715.0 382.6 L721.0 393.9 L724.9 405.7 L727.3 417.8 L728.6 430.0 Z" fill="none" stroke="#7d6a4f" stroke-width="0.9" stroke-opacity="0.32"></path>
<path d="M777.9 430.0 L785.8 444.6 L793.8 459.9 L801.3 476.0 L807.3 492.8 L810.9 509.9 L811.2 526.9 L807.6 543.4 L799.8 558.9 L788.0 572.8 L772.5 584.7 L754.0 594.6 L733.4 602.5 L711.8 608.6 L690.0 613.2 L668.8 616.9 L648.8 620.2 L630.3 623.6 L613.2 627.4 L597.4 631.7 L582.4 636.5 L567.7 641.5 L553.1 646.4 L538.2 650.6 L522.9 653.7 L507.1 655.3 L491.2 655.3 L475.3 653.7 L459.6 650.8 L444.5 647.0 L430.0 642.9 L416.0 639.3 L402.2 636.7 L388.4 635.6 L374.0 636.3 L358.6 638.7 L341.8 642.5 L323.5 647.2 L303.7 652.1 L282.6 656.4 L260.9 659.3 L239.1 660.1 L217.9 658.4 L198.1 654.1 L180.3 647.0 L164.8 637.6 L151.6 626.2 L140.7 613.4 L131.6 599.7 L123.8 585.6 L116.7 571.6 L109.7 557.7 L102.6 544.1 L95.0 530.6 L87.3 517.1 L79.8 503.4 L73.1 489.4 L67.9 474.9 L65.0 460.0 L65.0 445.0 L68.2 430.0 L74.7 415.4 L84.2 401.6 L96.3 388.6 L110.0 376.8 L124.3 365.9 L138.4 355.8 L151.3 346.3 L162.4 336.8 L171.5 326.9 L178.5 316.3 L183.7 304.8 L187.9 292.4 L191.8 279.1 L196.2 265.3 L201.9 251.5 L209.4 238.2 L219.0 226.1 L230.9 215.5 L244.8 206.8 L260.3 199.9 L277.0 194.9 L294.2 191.4 L311.7 188.8 L329.0 186.6 L345.9 184.4 L362.6 181.7 L379.1 178.4 L395.7 174.4 L412.6 170.1 L430.0 165.9 L447.9 162.4 L466.2 160.3 L484.6 160.1 L502.7 162.3 L520.0 167.1 L536.1 174.4 L550.7 184.0 L563.5 195.3 L574.8 207.6 L584.7 220.3 L593.9 232.5 L602.8 243.8 L612.3 253.8 L622.8 262.5 L634.7 269.8 L648.3 276.2 L663.3 282.1 L679.5 288.2 L696.1 294.8 L712.4 302.4 L727.7 311.3 L741.2 321.6 L752.4 333.1 L761.1 345.8 L767.3 359.3 L771.4 373.2 L773.8 387.4 L775.4 401.6 L776.7 415.8 L778.4 430.0 Z" fill="none" stroke="#7d6a4f" stroke-width="0.9" stroke-opacity="0.32"></path>
<path d="M835.1 430.0 L842.4 446.9 L847.4 464.3 L849.2 482.0 L847.1 499.4 L840.7 516.1 L829.8 531.7 L814.8 545.6 L796.5 557.7 L775.8 567.9 L753.8 576.3 L731.6 583.3 L710.2 589.3 L690.2 594.9 L672.1 600.6 L655.9 606.8 L641.4 613.8 L628.1 621.5 L615.5 629.8 L602.9 638.4 L589.9 646.7 L576.0 654.3 L561.2 660.6 L545.5 665.4 L529.1 668.6 L512.3 670.4 L495.5 671.1 L478.8 671.3 L462.5 671.7 L446.3 672.9 L430.0 675.4 L413.3 679.5 L395.7 685.3 L376.9 692.6 L356.5 700.8 L334.5 709.0 L311.0 716.6 L286.6 722.5 L261.7 725.9 L237.1 726.3 L213.7 723.3 L192.0 716.8 L172.6 707.2 L155.8 695.0 L141.6 680.7 L129.6 665.1 L119.4 648.8 L110.5 632.5 L102.1 616.4 L94.0 600.8 L85.6 585.6 L77.2 570.7 L68.9 555.8 L61.3 540.8 L55.1 525.3 L51.1 509.5 L49.8 493.3 L51.7 476.9 L57.0 460.7 L65.5 444.9 L76.6 430.0 L89.6 416.0 L103.3 403.1 L116.7 391.2 L128.7 379.9 L138.7 368.9 L146.0 357.8 L150.7 346.1 L153.0 333.5 L153.7 319.8 L153.5 305.1 L153.5 289.5 L154.7 273.5 L157.9 257.5 L163.6 242.3 L172.1 228.1 L183.3 215.6 L197.0 204.8 L212.5 195.7 L229.3 188.1 L246.8 181.6 L264.4 175.7 L282.0 169.8 L299.3 163.5 L316.5 156.6 L333.8 149.1 L351.6 141.2 L370.0 133.3 L389.2 126.2 L409.3 120.4 L430.0 116.8 L451.0 115.8 L471.9 117.9 L492.1 123.0 L511.2 130.9 L528.9 141.2 L544.9 153.1 L559.6 165.8 L573.1 178.5 L586.0 190.4 L598.9 201.1 L612.4 210.2 L626.9 217.9 L642.8 224.3 L660.0 230.1 L678.3 235.7 L697.1 241.8 L715.7 248.9 L733.3 257.6 L749.1 267.8 L762.6 279.7 L773.4 293.1 L781.5 307.5 L787.2 322.7 L790.9 338.2 L793.5 353.8 L795.6 369.2 L798.0 384.4 L801.1 399.5 L805.0 414.6 L809.8 430.0 Z" fill="none" stroke="#7d6a4f" stroke-width="1.6" stroke-opacity="0.55"></path>
<path d="M1095.9 300.0 L1096.1 301.0 L1096.2 302.0 L1096.1 303.0 L1095.8 303.9 L1095.2 304.7 L1094.3 305.4 L1093.3 305.9 L1092.2 306.3 L1091.1 306.5 L1090.1 306.7 L1089.3 307.0 L1088.8 307.4 L1088.5 308.0 L1088.5 308.9 L1088.7 310.1 L1088.9 311.5 L1089.2 313.1 L1089.3 314.9 L1089.3 316.6 L1089.0 318.1 L1088.5 319.4 L1087.8 320.2 L1086.8 320.6 L1085.8 320.6 L1084.7 320.1 L1083.6 319.4 L1082.5 318.4 L1081.6 317.4 L1080.7 316.6 L1080.0 315.8 L1079.3 315.4 L1078.6 315.2 L1077.9 315.2 L1077.2 315.3 L1076.4 315.5 L1075.6 315.6 L1074.8 315.5 L1074.2 315.2 L1073.6 314.6 L1073.2 313.7 L1072.9 312.6 L1072.9 311.3 L1073.0 310.1 L1073.1 308.9 L1073.2 307.9 L1073.1 307.2 L1072.9 306.7 L1072.3 306.5 L1071.4 306.5 L1070.1 306.6 L1068.5 306.8 L1066.7 306.8 L1064.9 306.7 L1063.0 306.4 L1061.4 305.8 L1060.0 304.9 L1059.0 303.9 L1058.4 302.6 L1058.2 301.3 L1058.3 300.0 L1058.7 298.7 L1059.2 297.5 L1059.8 296.3 L1060.4 295.2 L1060.8 294.1 L1061.2 292.9 L1061.4 291.8 L1061.6 290.5 L1061.9 289.3 L1062.2 288.1 L1062.8 287.1 L1063.6 286.2 L1064.7 285.6 L1066.0 285.4 L1067.6 285.6 L1069.3 286.2 L1071.1 287.2 L1072.8 288.5 L1074.3 289.9 L1075.6 291.3 L1076.7 292.5 L1077.5 293.4 L1078.0 294.0 L1078.3 294.0 L1078.5 293.7 L1078.7 292.9 L1078.9 291.8 L1079.1 290.6 L1079.5 289.3 L1080.0 288.2 L1080.6 287.2 L1081.2 286.5 L1081.9 286.0 L1082.6 285.8 L1083.3 285.8 L1084.0 285.8 L1084.7 285.8 L1085.5 285.7 L1086.4 285.4 L1087.5 284.9 L1088.8 284.3 L1090.3 283.6 L1092.0 282.9 L1093.8 282.3 L1095.6 282.0 L1097.3 282.0 L1098.7 282.4 L1099.9 283.2 L1100.7 284.4 L1101.0 285.9 L1100.9 287.7 L1100.4 289.5 L1099.5 291.3 L1098.5 293.1 L1097.3 294.6 L1096.3 296.0 L1095.3 297.2 L1094.6 298.2 L1094.2 299.1 L1094.0 300.0 Z" fill="none" stroke="#7d6a4f" stroke-width="1.6" stroke-opacity="0.55"></path>
<path d="M1120.1 300.0 L1119.6 302.4 L1118.7 304.7 L1117.4 306.9 L1115.8 308.8 L1114.0 310.6 L1112.2 312.1 L1110.6 313.6 L1109.2 315.0 L1108.2 316.6 L1107.6 318.5 L1107.5 320.7 L1107.6 323.2 L1108.0 326.2 L1108.3 329.6 L1108.6 333.1 L1108.5 336.6 L1108.0 340.0 L1107.0 343.0 L1105.5 345.5 L1103.6 347.3 L1101.3 348.5 L1098.9 349.0 L1096.3 349.0 L1093.7 348.7 L1091.1 348.1 L1088.7 347.6 L1086.5 347.2 L1084.3 347.1 L1082.1 347.3 L1080.0 347.7 L1077.8 348.3 L1075.6 349.0 L1073.2 349.4 L1070.9 349.5 L1068.6 349.1 L1066.5 348.2 L1064.5 346.7 L1062.8 344.7 L1061.4 342.3 L1060.2 339.7 L1059.2 337.1 L1058.2 334.7 L1057.2 332.6 L1056.0 330.8 L1054.5 329.5 L1052.6 328.6 L1050.3 327.9 L1047.6 327.2 L1044.7 326.6 L1041.6 325.6 L1038.7 324.4 L1036.0 322.7 L1033.7 320.6 L1032.0 318.0 L1031.0 315.2 L1030.6 312.2 L1030.8 309.0 L1031.4 305.9 L1032.3 302.9 L1033.4 300.0 L1034.5 297.2 L1035.4 294.6 L1036.2 292.0 L1036.7 289.4 L1037.2 286.7 L1037.6 284.1 L1038.2 281.4 L1039.0 278.9 L1040.2 276.5 L1041.9 274.5 L1044.0 272.9 L1046.5 271.9 L1049.4 271.3 L1052.4 271.3 L1055.5 271.6 L1058.4 272.2 L1061.0 272.8 L1063.2 273.2 L1065.0 273.3 L1066.5 272.9 L1067.6 271.8 L1068.5 270.1 L1069.3 267.8 L1070.2 265.1 L1071.3 262.2 L1072.5 259.3 L1074.1 256.5 L1075.8 254.1 L1077.8 252.3 L1080.0 251.0 L1082.3 250.2 L1084.6 249.8 L1086.9 249.7 L1089.2 249.8 L1091.6 249.9 L1094.1 249.9 L1096.7 249.7 L1099.5 249.4 L1102.5 249.0 L1105.6 248.6 L1108.9 248.5 L1112.2 248.7 L1115.3 249.5 L1118.1 251.0 L1120.4 253.2 L1122.1 256.1 L1123.2 259.5 L1123.5 263.4 L1123.2 267.5 L1122.3 271.7 L1121.0 275.8 L1119.5 279.6 L1118.0 283.1 L1116.7 286.2 L1115.7 288.9 L1115.1 291.4 L1114.8 293.6 L1114.8 295.8 L1115.0 297.9 L1115.3 300.0 Z" fill="none" stroke="#7d6a4f" stroke-width="0.9" stroke-opacity="0.32"></path>
<path d="M1138.0 300.0 L1136.8 303.4 L1135.3 306.7 L1133.7 309.8 L1132.3 312.9 L1131.1 315.9 L1130.5 319.0 L1130.4 322.4 L1130.9 326.2 L1131.8 330.6 L1133.0 335.4 L1134.2 340.8 L1135.2 346.5 L1135.8 352.3 L1135.6 358.0 L1134.7 363.3 L1132.9 368.1 L1130.4 372.0 L1127.1 375.1 L1123.4 377.3 L1119.2 378.7 L1114.9 379.4 L1110.7 379.8 L1106.5 379.9 L1102.5 380.2 L1098.7 380.6 L1094.9 381.3 L1091.3 382.3 L1087.6 383.5 L1083.8 384.6 L1080.0 385.4 L1076.1 385.8 L1072.2 385.5 L1068.5 384.3 L1064.9 382.3 L1061.6 379.5 L1058.7 376.0 L1056.1 372.2 L1053.8 368.2 L1051.7 364.3 L1049.6 360.9 L1047.5 358.0 L1045.1 355.7 L1042.3 354.0 L1039.0 352.7 L1035.3 351.8 L1031.3 350.8 L1027.0 349.6 L1022.9 348.1 L1018.9 345.9 L1015.5 343.1 L1012.7 339.7 L1010.7 335.7 L1009.6 331.3 L1009.2 326.6 L1009.4 321.9 L1010.0 317.2 L1010.9 312.7 L1011.7 308.3 L1012.4 304.1 L1012.9 300.0 L1013.0 295.9 L1012.9 291.8 L1012.8 287.7 L1012.7 283.4 L1013.0 279.2 L1013.7 275.1 L1015.1 271.2 L1017.2 267.6 L1019.9 264.6 L1023.3 262.1 L1027.0 260.1 L1030.9 258.7 L1034.8 257.6 L1038.4 256.6 L1041.6 255.6 L1044.3 254.1 L1046.5 252.1 L1048.3 249.4 L1049.7 246.0 L1051.0 241.9 L1052.4 237.3 L1054.0 232.5 L1056.0 227.6 L1058.4 223.1 L1061.3 219.1 L1064.6 215.9 L1068.2 213.5 L1072.0 212.0 L1076.0 211.3 L1080.0 211.2 L1084.0 211.4 L1088.0 211.9 L1092.0 212.3 L1096.1 212.5 L1100.2 212.6 L1104.5 212.6 L1109.0 212.6 L1113.5 212.8 L1118.0 213.5 L1122.4 214.9 L1126.4 217.2 L1129.9 220.5 L1132.7 224.7 L1134.7 229.7 L1135.7 235.5 L1136.0 241.6 L1135.5 247.9 L1134.5 254.1 L1133.2 260.0 L1131.9 265.3 L1130.8 270.0 L1130.1 274.2 L1129.9 277.8 L1130.2 281.1 L1131.1 284.2 L1132.3 287.1 L1133.7 290.2 L1135.0 293.3 L1136.1 296.6 L1136.9 300.0 Z" fill="none" stroke="#7d6a4f" stroke-width="0.9" stroke-opacity="0.32"></path>
<path d="M1159.5 300.0 L1159.2 304.8 L1159.1 309.6 L1159.6 314.6 L1160.6 319.8 L1162.2 325.5 L1164.3 331.7 L1166.7 338.5 L1169.1 346.0 L1171.2 353.8 L1172.7 361.9 L1173.2 370.0 L1172.5 377.8 L1170.6 384.9 L1167.4 391.1 L1163.1 396.2 L1157.9 400.2 L1152.1 403.1 L1145.9 405.0 L1139.6 406.3 L1133.4 407.1 L1127.4 407.8 L1121.7 408.6 L1116.3 409.6 L1111.1 410.9 L1106.0 412.3 L1100.9 413.7 L1095.7 414.9 L1090.5 415.5 L1085.2 415.3 L1080.0 414.1 L1074.9 411.9 L1070.1 408.6 L1065.7 404.5 L1061.7 399.9 L1058.0 395.0 L1054.6 390.3 L1051.5 386.1 L1048.2 382.6 L1044.8 380.0 L1041.0 378.3 L1036.6 377.3 L1031.8 376.8 L1026.4 376.6 L1020.8 376.2 L1015.0 375.3 L1009.3 373.7 L1004.1 371.2 L999.5 367.7 L995.8 363.3 L993.0 358.2 L991.0 352.5 L989.8 346.5 L989.2 340.3 L988.9 334.3 L988.7 328.3 L988.3 322.6 L987.6 316.9 L986.6 311.4 L985.3 305.7 L983.9 300.0 L982.6 294.1 L981.7 288.0 L981.4 281.9 L982.0 275.9 L983.5 270.1 L986.0 264.7 L989.5 259.8 L993.7 255.5 L998.3 251.8 L1003.1 248.6 L1007.7 245.6 L1011.9 242.7 L1015.6 239.6 L1018.6 236.0 L1021.1 231.8 L1023.1 226.8 L1024.9 221.2 L1026.6 215.0 L1028.6 208.4 L1031.1 201.9 L1034.2 195.8 L1037.9 190.4 L1042.2 186.0 L1047.1 182.6 L1052.3 180.5 L1057.9 179.4 L1063.5 179.1 L1069.1 179.5 L1074.6 180.2 L1080.0 180.9 L1085.4 181.5 L1090.7 181.8 L1096.2 181.8 L1101.7 181.8 L1107.3 181.9 L1113.0 182.5 L1118.5 183.7 L1123.8 186.0 L1128.7 189.4 L1132.8 194.0 L1136.2 199.8 L1138.7 206.5 L1140.2 213.9 L1141.0 221.5 L1141.2 229.2 L1141.0 236.4 L1140.7 243.1 L1140.7 248.9 L1141.2 254.0 L1142.4 258.3 L1144.2 262.1 L1146.8 265.6 L1149.9 268.9 L1153.3 272.4 L1156.7 276.2 L1159.9 280.3 L1162.7 284.8 L1164.8 289.7 L1166.2 294.8 L1167.0 300.0 Z" fill="none" stroke="#7d6a4f" stroke-width="0.9" stroke-opacity="0.32"></path>
<path d="M1195.2 300.0 L1197.2 307.1 L1199.9 314.6 L1203.0 322.6 L1206.5 331.1 L1209.9 340.3 L1212.8 350.0 L1215.0 360.0 L1215.9 370.1 L1215.3 379.8 L1213.1 389.0 L1209.2 397.2 L1203.8 404.1 L1197.0 409.7 L1189.4 414.0 L1181.1 417.1 L1172.6 419.1 L1164.3 420.6 L1156.3 421.7 L1148.8 422.7 L1141.8 424.0 L1135.3 425.6 L1129.0 427.4 L1122.9 429.4 L1116.8 431.2 L1110.7 432.5 L1104.4 433.2 L1098.2 432.8 L1091.9 431.3 L1085.8 428.8 L1080.0 425.2 L1074.5 421.0 L1069.4 416.6 L1064.6 412.3 L1060.1 408.5 L1055.5 405.7 L1050.8 404.0 L1045.7 403.5 L1040.0 404.0 L1033.7 405.2 L1026.7 406.8 L1019.3 408.3 L1011.4 409.3 L1003.6 409.3 L996.0 408.0 L989.0 405.4 L982.7 401.4 L977.5 396.1 L973.3 389.8 L969.9 382.8 L967.4 375.3 L965.3 367.7 L963.5 360.1 L961.6 352.6 L959.5 345.3 L957.2 338.1 L954.6 330.9 L951.8 323.5 L949.3 315.9 L947.2 308.1 L945.9 300.0 L945.6 291.8 L946.7 283.8 L949.0 276.0 L952.7 268.7 L957.4 262.0 L962.8 255.9 L968.7 250.5 L974.5 245.6 L979.9 240.9 L984.7 236.3 L988.7 231.3 L991.9 225.9 L994.4 219.7 L996.4 212.9 L998.3 205.4 L1000.4 197.6 L1002.9 189.7 L1006.1 182.2 L1010.1 175.3 L1014.9 169.5 L1020.5 164.9 L1026.8 161.6 L1033.4 159.5 L1040.3 158.5 L1047.2 158.3 L1054.0 158.4 L1060.7 158.6 L1067.2 158.6 L1073.6 158.2 L1080.0 157.4 L1086.5 156.3 L1093.1 155.2 L1099.9 154.4 L1106.7 154.4 L1113.5 155.3 L1120.0 157.6 L1126.0 161.4 L1131.3 166.6 L1135.8 173.1 L1139.5 180.7 L1142.4 188.8 L1144.6 197.1 L1146.4 205.0 L1148.1 212.4 L1150.0 218.9 L1152.4 224.5 L1155.5 229.2 L1159.4 233.2 L1164.1 236.7 L1169.5 240.2 L1175.2 243.8 L1181.1 247.9 L1186.6 252.6 L1191.6 258.0 L1195.8 264.1 L1199.0 270.7 L1201.3 277.7 L1202.8 285.1 L1203.7 292.5 L1204.2 300.0 Z" fill="none" stroke="#7d6a4f" stroke-width="0.9" stroke-opacity="0.32"></path>
<path d="M1238.9 300.0 L1242.9 309.9 L1246.8 320.3 L1250.3 331.2 L1252.9 342.6 L1254.1 354.0 L1253.7 365.3 L1251.2 376.1 L1246.8 386.0 L1240.5 394.7 L1232.5 401.9 L1223.3 407.8 L1213.4 412.2 L1203.2 415.5 L1193.2 418.0 L1183.6 420.0 L1174.8 421.9 L1166.8 424.1 L1159.5 426.7 L1152.8 429.7 L1146.4 433.1 L1140.1 436.6 L1133.8 439.9 L1127.3 442.7 L1120.6 444.6 L1113.7 445.4 L1106.6 445.1 L1099.7 443.8 L1092.9 441.8 L1086.3 439.3 L1080.0 436.9 L1073.9 435.1 L1067.8 434.3 L1061.6 434.7 L1055.0 436.4 L1047.8 439.3 L1039.8 443.1 L1031.1 447.4 L1021.7 451.5 L1011.8 454.9 L1001.6 457.1 L991.6 457.7 L981.9 456.3 L973.1 452.9 L965.2 447.6 L958.5 440.7 L952.9 432.5 L948.3 423.5 L944.5 414.0 L941.2 404.4 L938.0 394.9 L934.9 385.6 L931.6 376.5 L928.1 367.5 L924.5 358.5 L921.2 349.3 L918.4 339.8 L916.4 330.0 L915.7 320.0 L916.4 309.9 L918.7 300.0 L922.6 290.4 L927.8 281.5 L934.0 273.2 L940.7 265.7 L947.5 258.9 L953.8 252.5 L959.4 246.4 L964.0 240.2 L967.4 233.6 L969.9 226.4 L971.5 218.4 L972.8 209.8 L974.0 200.6 L975.6 191.2 L977.9 181.8 L981.2 173.0 L985.6 165.1 L991.1 158.3 L997.5 152.8 L1004.5 148.7 L1012.1 145.6 L1019.8 143.5 L1027.5 141.7 L1035.1 140.1 L1042.6 138.2 L1049.9 135.9 L1057.2 133.0 L1064.5 129.7 L1072.1 126.3 L1080.0 123.0 L1088.1 120.5 L1096.4 119.1 L1104.7 119.2 L1112.8 121.2 L1120.5 125.0 L1127.5 130.6 L1133.8 137.6 L1139.3 145.7 L1144.1 154.2 L1148.4 162.7 L1152.5 170.8 L1156.6 178.0 L1161.0 184.1 L1166.1 189.2 L1172.0 193.5 L1178.6 197.2 L1185.9 200.7 L1193.6 204.4 L1201.4 208.7 L1208.9 213.8 L1215.8 219.9 L1221.7 227.0 L1226.4 234.9 L1229.9 243.6 L1232.2 252.8 L1233.7 262.2 L1234.6 271.7 L1235.2 281.1 L1235.8 290.5 L1236.7 300.0 Z" fill="none" stroke="#7d6a4f" stroke-width="1.6" stroke-opacity="0.55"></path>
<path d="M1275.4 300.0 L1278.8 312.1 L1280.9 324.4 L1281.2 336.9 L1279.4 349.1 L1275.3 360.6 L1269.2 371.2 L1261.1 380.5 L1251.5 388.4 L1241.0 395.0 L1230.2 400.4 L1219.5 404.9 L1209.5 408.9 L1200.3 412.8 L1192.2 417.0 L1185.1 421.7 L1178.9 427.1 L1173.1 433.1 L1167.5 439.5 L1161.9 446.0 L1155.9 452.1 L1149.4 457.6 L1142.3 462.1 L1134.9 465.5 L1127.0 467.7 L1119.1 468.9 L1111.1 469.6 L1103.3 470.1 L1095.5 471.0 L1087.8 472.7 L1080.0 475.6 L1071.9 479.7 L1063.2 485.1 L1053.8 491.4 L1043.6 498.1 L1032.6 504.7 L1021.0 510.3 L1008.9 514.4 L996.8 516.5 L985.0 516.0 L973.8 512.9 L963.7 507.3 L954.9 499.4 L947.3 489.7 L941.0 478.7 L935.8 467.0 L931.3 455.0 L927.4 443.1 L923.5 431.6 L919.7 420.5 L915.8 409.8 L911.8 399.2 L908.0 388.7 L904.6 378.0 L902.1 366.9 L900.7 355.6 L900.8 344.1 L902.6 332.5 L906.1 321.2 L910.9 310.3 L916.9 300.0 L923.6 290.5 L930.3 281.8 L936.5 273.7 L941.7 266.0 L945.7 258.3 L948.3 250.4 L949.4 242.0 L949.5 232.7 L948.8 222.6 L947.8 211.7 L947.2 200.2 L947.4 188.5 L948.8 176.9 L951.5 166.0 L955.7 156.1 L961.3 147.3 L968.0 139.8 L975.6 133.6 L983.7 128.2 L992.0 123.5 L1000.4 119.0 L1008.6 114.4 L1016.8 109.3 L1024.9 103.7 L1033.2 97.7 L1041.7 91.5 L1050.7 85.6 L1060.1 80.4 L1069.9 76.5 L1080.0 74.4 L1090.2 74.4 L1100.3 76.8 L1109.9 81.5 L1118.9 88.1 L1127.1 96.3 L1134.6 105.4 L1141.4 114.9 L1147.7 123.9 L1153.8 132.2 L1160.1 139.4 L1166.7 145.3 L1174.0 150.2 L1182.0 154.2 L1190.6 157.8 L1199.6 161.5 L1208.8 165.7 L1217.7 170.8 L1226.0 177.2 L1233.3 184.8 L1239.3 193.5 L1243.9 203.3 L1247.2 213.8 L1249.5 224.7 L1251.0 235.7 L1252.1 246.6 L1253.1 257.4 L1254.5 268.0 L1256.4 278.5 L1258.8 289.2 L1261.5 300.0 Z" fill="none" stroke="#7d6a4f" stroke-width="0.9" stroke-opacity="0.32"></path>
<path d="M1301.1 300.0 L1301.4 313.4 L1299.3 326.7 L1294.9 339.4 L1288.2 351.3 L1279.8 362.0 L1270.2 371.6 L1260.0 380.0 L1249.9 387.6 L1240.4 394.6 L1231.9 401.5 L1224.6 408.7 L1218.4 416.4 L1213.2 424.9 L1208.7 434.2 L1204.4 444.0 L1199.9 454.1 L1194.8 464.2 L1188.9 473.6 L1182.1 482.1 L1174.4 489.3 L1165.9 495.3 L1156.9 500.0 L1147.5 503.8 L1138.1 507.0 L1128.7 510.3 L1119.3 514.1 L1109.9 518.8 L1100.4 524.6 L1090.5 531.6 L1080.0 539.5 L1068.8 547.9 L1056.8 555.9 L1044.0 563.0 L1030.7 568.4 L1017.2 571.3 L1003.9 571.4 L991.1 568.3 L979.2 562.1 L968.6 553.2 L959.4 541.9 L951.5 529.0 L945.0 515.2 L939.4 501.0 L934.5 487.1 L930.0 473.7 L925.5 461.1 L920.9 449.2 L916.2 437.8 L911.5 426.7 L907.0 415.7 L903.1 404.4 L900.2 392.7 L898.6 380.6 L898.5 368.3 L900.1 355.8 L903.1 343.5 L907.2 331.7 L912.1 320.4 L917.0 309.9 L921.4 300.0 L924.7 290.6 L926.6 281.3 L926.8 271.9 L925.3 261.9 L922.5 251.1 L918.7 239.3 L914.5 226.4 L910.6 212.7 L907.6 198.3 L906.1 183.8 L906.4 169.5 L908.7 155.9 L912.9 143.4 L918.9 132.1 L926.3 122.1 L934.8 113.2 L943.8 105.2 L953.1 97.7 L962.4 90.3 L971.7 82.8 L981.0 74.9 L990.3 66.7 L999.9 58.5 L1010.0 50.5 L1020.6 43.4 L1031.9 37.7 L1043.6 34.1 L1055.8 32.9 L1068.0 34.4 L1080.0 38.7 L1091.5 45.4 L1102.3 54.1 L1112.3 64.1 L1121.4 74.6 L1129.8 85.0 L1137.7 94.5 L1145.4 102.7 L1153.3 109.4 L1161.6 114.6 L1170.5 118.6 L1180.0 121.8 L1190.0 124.7 L1200.3 128.0 L1210.5 132.2 L1220.2 137.6 L1229.1 144.6 L1236.8 152.9 L1243.3 162.7 L1248.4 173.4 L1252.4 184.8 L1255.5 196.4 L1258.3 208.1 L1261.0 219.5 L1264.1 230.7 L1267.8 241.7 L1272.2 252.7 L1277.1 263.9 L1282.3 275.4 L1287.4 287.4 L1291.6 300.0 Z" fill="none" stroke="#7d6a4f" stroke-width="0.9" stroke-opacity="0.32"></path>
<path d="M1326.1 300.0 L1322.0 314.7 L1315.8 328.7 L1308.0 341.8 L1299.2 353.9 L1290.2 365.2 L1281.6 375.8 L1273.9 386.2 L1267.4 396.6 L1262.1 407.5 L1258.0 419.0 L1254.5 431.2 L1251.3 444.1 L1247.9 457.4 L1243.6 470.6 L1238.3 483.3 L1231.7 495.1 L1223.8 505.6 L1214.6 514.5 L1204.5 521.9 L1193.7 528.1 L1182.7 533.3 L1171.6 538.2 L1160.6 543.2 L1149.8 548.9 L1139.1 555.5 L1128.3 563.3 L1117.2 572.0 L1105.5 581.2 L1093.1 590.3 L1080.0 598.5 L1066.2 605.0 L1052.0 609.0 L1037.6 609.9 L1023.6 607.5 L1010.2 601.6 L997.9 592.5 L986.9 580.8 L977.3 567.1 L969.0 552.3 L961.8 537.1 L955.3 522.3 L949.3 508.4 L943.3 495.5 L937.2 483.7 L930.7 472.8 L924.0 462.6 L917.3 452.5 L910.8 442.3 L905.0 431.6 L900.3 420.2 L896.8 408.1 L894.9 395.4 L894.4 382.5 L895.0 369.6 L896.5 356.9 L898.2 344.8 L899.4 333.1 L899.7 321.9 L898.5 311.0 L895.5 300.0 L890.9 288.5 L884.7 276.2 L877.4 262.8 L869.8 248.3 L862.5 232.5 L856.4 215.9 L852.1 198.7 L850.0 181.4 L850.5 164.6 L853.7 148.7 L859.3 134.0 L866.9 120.7 L876.1 108.8 L886.3 98.1 L897.1 88.2 L908.0 78.8 L918.9 69.6 L929.6 60.4 L940.4 51.0 L951.2 41.7 L962.4 32.7 L974.1 24.6 L986.5 18.0 L999.6 13.4 L1013.2 11.4 L1027.2 12.2 L1041.2 16.0 L1054.8 22.5 L1067.8 31.2 L1080.0 41.5 L1091.2 52.4 L1101.5 63.2 L1111.0 73.0 L1120.2 81.3 L1129.2 87.5 L1138.4 91.8 L1148.2 94.4 L1158.6 95.6 L1169.7 96.2 L1181.3 96.9 L1193.1 98.3 L1204.8 101.1 L1216.0 105.5 L1226.4 111.8 L1235.6 119.8 L1243.7 129.3 L1250.7 139.9 L1256.9 151.1 L1262.7 162.6 L1268.4 174.1 L1274.4 185.3 L1281.1 196.3 L1288.5 207.3 L1296.6 218.5 L1305.1 230.2 L1313.5 242.5 L1321.2 255.8 L1327.6 269.9 L1332.1 284.7 L1334.1 300.0 Z" fill="none" stroke="#7d6a4f" stroke-width="0.9" stroke-opacity="0.32"></path>
<path d="M1255.9 760.0 L1255.2 760.6 L1254.6 761.2 L1254.0 761.8 L1253.7 762.3 L1253.8 762.9 L1254.3 763.7 L1255.2 764.6 L1256.5 765.8 L1258.0 767.2 L1259.5 768.9 L1261.0 770.8 L1262.2 772.8 L1263.0 774.7 L1263.3 776.6 L1263.0 778.2 L1262.2 779.5 L1260.9 780.5 L1259.3 781.0 L1257.4 781.3 L1255.5 781.3 L1253.6 781.1 L1251.7 780.8 L1250.0 780.6 L1248.4 780.6 L1247.0 780.6 L1245.6 780.9 L1244.2 781.2 L1242.9 781.6 L1241.5 781.9 L1240.0 782.1 L1238.5 782.0 L1237.1 781.6 L1235.8 780.8 L1234.7 779.7 L1233.8 778.3 L1233.1 776.9 L1232.6 775.4 L1232.1 774.0 L1231.8 772.8 L1231.3 771.9 L1230.7 771.4 L1229.8 771.1 L1228.5 771.2 L1227.0 771.4 L1225.2 771.7 L1223.2 772.0 L1221.1 772.1 L1219.1 772.0 L1217.4 771.6 L1216.0 771.0 L1215.1 770.1 L1214.6 768.9 L1214.6 767.7 L1214.9 766.5 L1215.5 765.2 L1216.1 764.0 L1216.7 762.9 L1217.1 761.9 L1217.3 760.9 L1217.2 760.0 L1216.9 759.0 L1216.5 758.0 L1216.1 757.0 L1215.8 755.9 L1215.8 754.9 L1216.1 753.9 L1216.9 753.0 L1218.1 752.3 L1219.6 751.8 L1221.4 751.5 L1223.3 751.4 L1225.2 751.5 L1226.8 751.6 L1228.2 751.6 L1229.2 751.5 L1229.8 751.1 L1230.1 750.3 L1230.1 749.3 L1230.0 747.9 L1229.9 746.2 L1229.9 744.4 L1230.2 742.5 L1230.7 740.7 L1231.5 739.2 L1232.5 737.9 L1233.8 737.0 L1235.3 736.5 L1236.9 736.3 L1238.4 736.3 L1240.0 736.5 L1241.5 736.7 L1243.1 736.8 L1244.6 736.9 L1246.2 736.8 L1247.9 736.6 L1249.7 736.3 L1251.6 736.1 L1253.4 736.1 L1255.3 736.3 L1256.9 736.8 L1258.2 737.8 L1259.2 739.1 L1259.7 740.8 L1259.6 742.7 L1259.1 744.9 L1258.2 747.0 L1257.0 749.1 L1255.6 751.0 L1254.2 752.7 L1253.1 754.0 L1252.2 755.1 L1251.8 755.8 L1251.8 756.4 L1252.2 756.9 L1253.0 757.3 L1253.9 757.7 L1254.9 758.1 L1255.8 758.7 L1256.5 759.3 L1257.0 760.0 Z" fill="none" stroke="#7d6a4f" stroke-width="1.6" stroke-opacity="0.55"></path>
<path d="M1286.1 760.0 L1286.4 761.9 L1287.1 763.9 L1288.3 766.1 L1289.9 768.4 L1292.0 771.0 L1294.3 774.0 L1296.6 777.2 L1298.8 780.7 L1300.5 784.4 L1301.4 788.1 L1301.5 791.6 L1300.6 794.9 L1298.7 797.7 L1296.0 799.9 L1292.6 801.6 L1288.6 802.7 L1284.3 803.4 L1280.0 803.6 L1275.8 803.7 L1271.8 803.7 L1268.1 803.7 L1264.7 803.9 L1261.5 804.3 L1258.4 804.8 L1255.3 805.3 L1252.3 805.8 L1249.2 806.0 L1246.1 805.9 L1243.0 805.3 L1240.0 804.2 L1237.2 802.7 L1234.6 800.7 L1232.3 798.5 L1230.3 796.2 L1228.5 794.0 L1226.8 792.2 L1225.1 790.7 L1223.2 789.8 L1221.1 789.4 L1218.5 789.5 L1215.5 789.9 L1212.1 790.4 L1208.3 791.0 L1204.4 791.3 L1200.5 791.3 L1196.9 790.7 L1193.6 789.7 L1191.0 788.2 L1188.9 786.2 L1187.5 784.0 L1186.7 781.5 L1186.2 779.0 L1186.0 776.4 L1185.8 773.9 L1185.5 771.6 L1184.9 769.3 L1184.0 767.0 L1182.8 764.8 L1181.5 762.4 L1180.3 760.0 L1179.3 757.5 L1178.7 754.9 L1178.8 752.3 L1179.6 749.8 L1181.1 747.5 L1183.4 745.4 L1186.2 743.7 L1189.4 742.2 L1192.7 740.9 L1195.8 739.8 L1198.7 738.7 L1201.0 737.6 L1202.9 736.2 L1204.2 734.5 L1205.1 732.4 L1205.7 729.9 L1206.3 727.1 L1207.1 724.1 L1208.1 721.1 L1209.5 718.2 L1211.5 715.7 L1213.9 713.6 L1216.8 712.1 L1219.9 711.1 L1223.3 710.7 L1226.8 710.7 L1230.2 711.0 L1233.5 711.4 L1236.8 711.8 L1240.0 712.0 L1243.2 712.1 L1246.4 712.0 L1249.6 711.8 L1253.0 711.6 L1256.4 711.5 L1259.8 711.8 L1263.0 712.5 L1266.0 713.8 L1268.5 715.7 L1270.5 718.1 L1271.9 721.1 L1272.7 724.4 L1272.9 727.8 L1272.7 731.2 L1272.3 734.5 L1271.8 737.3 L1271.6 739.8 L1271.7 741.7 L1272.4 743.3 L1273.8 744.6 L1275.7 745.6 L1278.0 746.6 L1280.7 747.6 L1283.4 748.8 L1286.0 750.2 L1288.4 751.9 L1290.2 753.7 L1291.6 755.7 L1292.5 757.8 L1293.0 760.0 Z" fill="none" stroke="#7d6a4f" stroke-width="0.9" stroke-opacity="0.32"></path>
<path d="M1328.1 760.0 L1330.5 763.8 L1333.3 767.8 L1336.3 772.1 L1339.4 776.7 L1342.1 781.7 L1344.2 786.8 L1345.3 792.0 L1345.2 797.1 L1343.7 801.8 L1340.8 806.1 L1336.5 809.6 L1331.2 812.5 L1325.1 814.5 L1318.5 815.9 L1311.7 816.8 L1305.1 817.2 L1298.8 817.5 L1293.0 817.8 L1287.8 818.2 L1282.9 818.9 L1278.4 819.7 L1274.1 820.7 L1269.9 821.7 L1265.6 822.5 L1261.3 822.9 L1256.9 822.9 L1252.5 822.3 L1248.1 821.1 L1243.9 819.4 L1240.0 817.4 L1236.3 815.2 L1232.9 813.1 L1229.7 811.4 L1226.5 810.3 L1223.1 809.9 L1219.4 810.1 L1215.3 811.0 L1210.5 812.4 L1205.2 814.0 L1199.4 815.6 L1193.3 817.0 L1187.0 817.7 L1180.9 817.8 L1175.2 817.0 L1170.1 815.4 L1165.7 813.0 L1162.2 809.9 L1159.4 806.4 L1157.3 802.5 L1155.5 798.6 L1154.0 794.7 L1152.5 790.8 L1150.9 787.1 L1148.9 783.4 L1146.8 779.8 L1144.5 776.1 L1142.3 772.2 L1140.5 768.3 L1139.3 764.2 L1139.0 760.0 L1139.7 755.8 L1141.6 751.8 L1144.5 748.0 L1148.2 744.6 L1152.7 741.5 L1157.4 738.8 L1162.1 736.3 L1166.5 734.1 L1170.2 731.9 L1173.3 729.5 L1175.5 726.8 L1177.1 723.8 L1178.2 720.4 L1179.1 716.6 L1180.1 712.5 L1181.3 708.4 L1183.1 704.4 L1185.6 700.7 L1188.8 697.5 L1192.6 695.0 L1197.0 693.2 L1201.8 692.1 L1206.8 691.5 L1211.8 691.3 L1216.8 691.3 L1221.6 691.4 L1226.2 691.2 L1230.8 690.8 L1235.4 690.1 L1240.0 689.2 L1244.8 688.2 L1249.7 687.3 L1254.7 686.7 L1259.7 686.8 L1264.5 687.5 L1269.1 689.1 L1273.2 691.5 L1276.7 694.7 L1279.6 698.5 L1281.8 702.7 L1283.6 706.9 L1285.0 711.0 L1286.3 714.8 L1287.7 718.0 L1289.6 720.7 L1292.1 722.9 L1295.2 724.6 L1299.1 726.0 L1303.5 727.4 L1308.2 728.8 L1313.1 730.5 L1317.8 732.6 L1322.0 735.1 L1325.6 738.0 L1328.4 741.2 L1330.4 744.8 L1331.7 748.5 L1332.5 752.3 L1332.9 756.1 L1333.3 760.0 Z" fill="none" stroke="#7d6a4f" stroke-width="0.9" stroke-opacity="0.32"></path>
<path d="M1374.5 760.0 L1378.0 765.7 L1381.3 771.8 L1383.7 778.0 L1385.1 784.4 L1385.0 790.8 L1383.2 796.8 L1379.6 802.4 L1374.3 807.3 L1367.6 811.5 L1359.8 814.8 L1351.3 817.2 L1342.6 819.0 L1334.1 820.3 L1326.1 821.4 L1318.9 822.4 L1312.4 823.6 L1306.6 825.1 L1301.4 826.9 L1296.6 829.0 L1292.0 831.3 L1287.3 833.5 L1282.4 835.5 L1277.3 837.0 L1272.0 838.0 L1266.5 838.3 L1260.9 838.0 L1255.5 837.3 L1250.1 836.3 L1245.0 835.4 L1240.0 834.8 L1235.0 834.9 L1230.0 835.6 L1224.6 837.2 L1218.6 839.5 L1212.1 842.5 L1204.8 845.7 L1196.9 848.8 L1188.5 851.6 L1179.8 853.5 L1171.1 854.4 L1162.8 854.1 L1155.0 852.6 L1148.2 849.8 L1142.3 845.9 L1137.4 841.2 L1133.4 836.0 L1130.2 830.4 L1127.4 824.8 L1124.9 819.2 L1122.3 813.8 L1119.6 808.6 L1116.8 803.4 L1113.9 798.3 L1111.1 793.2 L1108.7 787.8 L1107.1 782.4 L1106.5 776.7 L1107.1 771.1 L1109.1 765.4 L1112.4 760.0 L1116.9 754.9 L1122.2 750.2 L1128.0 746.0 L1133.8 742.1 L1139.3 738.6 L1143.9 735.3 L1147.6 731.9 L1150.1 728.3 L1151.7 724.4 L1152.4 720.0 L1152.7 715.1 L1152.8 709.9 L1153.3 704.4 L1154.3 698.9 L1156.2 693.7 L1159.1 688.8 L1162.9 684.7 L1167.7 681.2 L1173.2 678.5 L1179.1 676.5 L1185.2 674.9 L1191.4 673.6 L1197.5 672.4 L1203.4 670.9 L1209.3 669.2 L1215.1 667.1 L1220.9 664.8 L1227.0 662.3 L1233.4 659.8 L1240.0 657.8 L1246.9 656.5 L1253.8 656.0 L1260.7 656.7 L1267.2 658.6 L1273.3 661.5 L1278.8 665.4 L1283.7 669.9 L1287.9 674.8 L1291.7 679.7 L1295.2 684.4 L1298.7 688.5 L1302.4 692.0 L1306.7 694.8 L1311.7 697.0 L1317.3 698.8 L1323.5 700.5 L1330.1 702.2 L1336.8 704.3 L1343.3 706.9 L1349.3 710.0 L1354.4 713.9 L1358.5 718.2 L1361.5 723.1 L1363.6 728.2 L1364.8 733.5 L1365.5 738.9 L1365.9 744.2 L1366.5 749.5 L1367.2 754.7 L1368.4 760.0 Z" fill="none" stroke="#7d6a4f" stroke-width="0.9" stroke-opacity="0.32"></path>
<path d="M1412.7 760.0 L1415.1 767.3 L1415.9 774.6 L1414.8 781.9 L1411.7 788.9 L1406.7 795.4 L1399.8 801.1 L1391.6 806.1 L1382.5 810.2 L1373.0 813.6 L1363.7 816.5 L1355.0 819.1 L1347.3 821.7 L1340.5 824.4 L1334.7 827.5 L1329.8 831.1 L1325.4 835.1 L1321.2 839.4 L1317.0 843.9 L1312.3 848.2 L1307.2 852.1 L1301.5 855.5 L1295.2 858.2 L1288.5 860.1 L1281.6 861.5 L1274.7 862.4 L1267.7 863.2 L1260.8 864.2 L1254.0 865.7 L1247.1 867.8 L1240.0 870.8 L1232.4 874.6 L1224.2 878.9 L1215.3 883.6 L1205.6 888.1 L1195.3 892.1 L1184.6 895.1 L1173.7 896.7 L1163.1 896.7 L1153.1 895.1 L1143.9 891.7 L1135.9 886.9 L1129.1 880.8 L1123.5 873.9 L1118.9 866.5 L1115.0 858.9 L1111.6 851.5 L1108.4 844.4 L1105.2 837.5 L1101.9 831.0 L1098.5 824.7 L1095.1 818.4 L1092.1 812.1 L1089.8 805.6 L1088.4 799.0 L1088.4 792.2 L1089.7 785.3 L1092.6 778.5 L1096.7 771.9 L1101.8 765.7 L1107.5 760.0 L1113.2 754.7 L1118.4 749.9 L1122.6 745.3 L1125.6 740.8 L1127.2 736.1 L1127.4 731.0 L1126.4 725.5 L1124.7 719.4 L1122.7 712.7 L1120.9 705.6 L1119.8 698.2 L1119.8 690.9 L1121.2 683.9 L1124.0 677.3 L1128.3 671.5 L1133.6 666.5 L1139.9 662.2 L1146.8 658.5 L1154.0 655.1 L1161.2 652.0 L1168.4 648.8 L1175.5 645.3 L1182.6 641.5 L1189.7 637.5 L1197.1 633.3 L1204.9 629.2 L1213.1 625.7 L1221.8 622.9 L1230.8 621.2 L1240.0 621.0 L1249.1 622.2 L1257.9 625.0 L1266.2 629.0 L1273.8 634.1 L1280.7 639.8 L1286.9 645.7 L1292.7 651.4 L1298.1 656.6 L1303.7 661.1 L1309.5 664.7 L1315.9 667.5 L1322.8 669.7 L1330.4 671.6 L1338.4 673.5 L1346.6 675.6 L1354.6 678.3 L1362.0 681.8 L1368.6 686.0 L1374.1 691.0 L1378.4 696.7 L1381.6 702.9 L1383.7 709.3 L1385.2 715.9 L1386.3 722.4 L1387.4 728.7 L1388.9 734.9 L1390.9 741.1 L1393.4 747.2 L1396.4 753.5 L1399.5 760.0 Z" fill="none" stroke="#7d6a4f" stroke-width="0.9" stroke-opacity="0.32"></path>
<path d="M1443.6 760.0 L1442.6 768.4 L1439.3 776.6 L1433.9 784.3 L1426.7 791.4 L1418.3 797.8 L1409.4 803.6 L1400.4 808.7 L1392.0 813.6 L1384.5 818.3 L1378.2 823.2 L1373.1 828.4 L1368.9 834.2 L1365.4 840.4 L1362.2 847.1 L1358.7 854.0 L1354.7 860.8 L1349.8 867.4 L1344.0 873.3 L1337.2 878.4 L1329.5 882.7 L1321.2 886.2 L1312.5 888.9 L1303.7 891.3 L1294.9 893.7 L1286.1 896.3 L1277.4 899.5 L1268.7 903.4 L1259.6 908.0 L1250.1 913.2 L1240.0 918.8 L1229.1 924.2 L1217.6 929.0 L1205.4 932.7 L1193.0 934.9 L1180.7 935.1 L1168.8 933.4 L1157.8 929.5 L1147.9 923.8 L1139.2 916.6 L1131.9 908.3 L1125.8 899.3 L1120.6 890.1 L1116.1 881.1 L1111.9 872.6 L1107.8 864.7 L1103.5 857.3 L1099.1 850.4 L1094.5 843.7 L1090.0 837.1 L1086.0 830.4 L1082.8 823.4 L1080.7 816.1 L1080.0 808.6 L1080.7 801.0 L1082.7 793.4 L1085.8 785.9 L1089.5 778.9 L1093.3 772.2 L1096.6 765.9 L1098.9 760.0 L1099.7 754.2 L1098.9 748.3 L1096.5 742.0 L1092.6 735.2 L1087.8 727.7 L1082.6 719.5 L1077.6 710.7 L1073.6 701.3 L1070.9 691.8 L1070.1 682.4 L1071.4 673.3 L1074.6 664.9 L1079.7 657.2 L1086.3 650.4 L1093.9 644.4 L1102.3 638.9 L1111.0 633.8 L1119.7 628.9 L1128.4 623.9 L1137.0 618.8 L1145.6 613.4 L1154.5 608.0 L1163.8 602.8 L1173.6 598.1 L1183.9 594.4 L1194.9 591.9 L1206.2 591.1 L1217.7 592.0 L1229.1 594.7 L1240.0 599.0 L1250.3 604.7 L1259.8 611.2 L1268.4 618.1 L1276.3 624.9 L1283.6 631.0 L1290.8 636.3 L1298.0 640.5 L1305.5 643.6 L1313.5 645.7 L1322.2 647.3 L1331.4 648.5 L1341.0 650.0 L1350.6 651.9 L1359.8 654.7 L1368.3 658.4 L1375.9 663.1 L1382.3 668.8 L1387.6 675.1 L1391.8 681.9 L1395.3 689.0 L1398.4 696.1 L1401.5 703.1 L1405.0 709.9 L1409.1 716.5 L1413.9 723.1 L1419.4 729.8 L1425.1 736.8 L1430.8 744.1 L1435.8 751.9 L1439.7 760.0 Z" fill="none" stroke="#7d6a4f" stroke-width="1.6" stroke-opacity="0.55"></path>
<path d="M1476.0 760.0 L1470.7 769.6 L1463.8 778.6 L1455.8 787.1 L1447.5 794.9 L1439.5 802.3 L1432.4 809.5 L1426.4 816.7 L1421.7 824.1 L1418.1 831.8 L1415.3 840.1 L1412.7 848.8 L1409.9 857.7 L1406.4 866.7 L1401.8 875.3 L1395.8 883.3 L1388.4 890.5 L1379.8 896.6 L1370.1 901.8 L1359.8 906.0 L1349.1 909.6 L1338.4 912.9 L1327.8 916.2 L1317.6 919.9 L1307.4 924.3 L1297.4 929.5 L1287.1 935.3 L1276.3 941.5 L1264.9 947.8 L1252.8 953.5 L1240.0 958.1 L1226.7 961.2 L1213.2 962.2 L1199.8 961.0 L1187.0 957.5 L1175.1 951.9 L1164.3 944.4 L1154.8 935.7 L1146.6 926.1 L1139.4 916.4 L1132.9 906.9 L1126.8 898.0 L1120.8 889.9 L1114.6 882.6 L1108.0 876.1 L1101.1 870.0 L1094.0 864.1 L1087.1 858.0 L1080.6 851.7 L1075.1 844.8 L1070.7 837.4 L1067.7 829.5 L1066.1 821.3 L1065.6 813.0 L1066.0 804.8 L1066.5 796.8 L1066.7 789.2 L1066.0 781.8 L1063.9 774.6 L1060.2 767.5 L1054.7 760.0 L1047.7 752.0 L1039.7 743.3 L1031.3 733.8 L1023.3 723.5 L1016.4 712.6 L1011.3 701.2 L1008.5 689.6 L1008.4 678.4 L1011.0 667.6 L1016.1 657.7 L1023.4 648.6 L1032.3 640.5 L1042.3 633.3 L1053.0 626.7 L1063.7 620.5 L1074.4 614.4 L1084.9 608.4 L1095.3 602.3 L1105.7 596.3 L1116.3 590.4 L1127.5 585.1 L1139.2 580.7 L1151.6 577.6 L1164.6 576.2 L1177.9 576.6 L1191.4 579.0 L1204.6 583.1 L1217.3 588.7 L1229.1 595.4 L1240.0 602.5 L1250.0 609.4 L1259.2 615.6 L1267.9 620.7 L1276.4 624.4 L1285.1 626.6 L1294.3 627.6 L1304.2 627.5 L1314.8 626.9 L1326.0 626.3 L1337.6 626.2 L1349.2 626.9 L1360.5 628.7 L1371.0 631.9 L1380.6 636.3 L1389.2 641.9 L1396.8 648.2 L1403.7 655.1 L1410.0 662.2 L1416.4 669.3 L1423.0 676.4 L1430.2 683.3 L1438.2 690.1 L1446.9 697.1 L1455.9 704.5 L1465.0 712.3 L1473.3 720.7 L1480.4 729.9 L1485.7 739.6 L1488.5 749.7 L1488.6 760.0 Z" fill="none" stroke="#7d6a4f" stroke-width="0.9" stroke-opacity="0.32"></path>
<path d="M1504.8 760.0 L1496.6 770.6 L1488.5 780.7 L1481.0 790.2 L1474.7 799.5 L1469.7 808.7 L1466.0 818.1 L1463.3 827.9 L1461.0 837.9 L1458.6 848.2 L1455.5 858.5 L1451.2 868.6 L1445.3 878.1 L1437.8 886.8 L1428.6 894.5 L1418.1 901.0 L1406.7 906.6 L1394.8 911.3 L1382.8 915.6 L1371.2 919.9 L1359.9 924.5 L1349.2 929.7 L1338.8 935.8 L1328.6 942.6 L1318.0 950.1 L1307.0 957.9 L1295.1 965.4 L1282.4 971.9 L1268.8 977.0 L1254.6 980.2 L1240.0 980.9 L1225.5 979.3 L1211.4 975.2 L1198.2 969.1 L1185.9 961.4 L1174.8 952.7 L1164.6 943.7 L1155.2 934.9 L1146.2 926.8 L1137.3 919.6 L1128.2 913.4 L1118.6 908.0 L1108.5 903.3 L1098.0 898.8 L1087.4 894.2 L1077.0 889.0 L1067.4 883.1 L1058.7 876.2 L1051.5 868.4 L1045.6 859.9 L1041.2 850.9 L1037.7 841.6 L1034.9 832.3 L1032.0 823.2 L1028.5 814.4 L1023.9 805.8 L1017.8 797.4 L1010.0 788.8 L1000.8 779.9 L990.5 770.4 L979.8 760.0 L969.6 748.8 L960.7 736.8 L953.9 724.1 L949.8 711.2 L948.9 698.3 L951.3 685.7 L956.8 673.9 L965.1 663.1 L975.5 653.3 L987.3 644.5 L1000.0 636.6 L1012.8 629.3 L1025.4 622.4 L1037.6 615.7 L1049.2 609.0 L1060.6 602.3 L1072.0 595.7 L1083.6 589.5 L1095.7 584.1 L1108.6 579.8 L1122.2 577.0 L1136.5 576.0 L1151.2 576.8 L1165.9 579.4 L1180.3 583.6 L1194.0 588.8 L1206.9 594.4 L1218.7 599.9 L1229.7 604.6 L1240.0 607.9 L1250.0 609.6 L1260.0 609.6 L1270.4 607.9 L1281.6 604.9 L1293.8 601.2 L1306.8 597.2 L1320.6 593.7 L1334.9 591.3 L1349.3 590.2 L1363.3 590.9 L1376.8 593.3 L1389.3 597.3 L1400.9 602.7 L1411.7 609.0 L1421.9 616.0 L1431.8 623.3 L1441.8 630.6 L1452.2 638.0 L1463.1 645.3 L1474.7 652.7 L1486.5 660.6 L1498.3 669.0 L1509.3 678.2 L1518.9 688.3 L1526.4 699.2 L1531.2 711.0 L1533.0 723.3 L1531.5 735.7 L1527.0 748.1 L1519.8 760.0 Z" fill="none" stroke="#7d6a4f" stroke-width="0.9" stroke-opacity="0.32"></path>
<path d="M1514.2 760.0 L1507.2 771.1 L1501.7 781.8 L1497.8 792.3 L1495.3 803.0 L1493.7 813.8 L1492.2 824.9 L1490.3 836.1 L1487.4 847.2 L1482.8 858.0 L1476.5 868.1 L1468.3 877.4 L1458.5 885.7 L1447.6 893.1 L1435.9 899.7 L1424.2 905.8 L1412.7 911.9 L1401.9 918.3 L1391.7 925.3 L1382.2 933.4 L1373.0 942.4 L1363.8 952.3 L1354.0 962.8 L1343.4 973.2 L1331.5 983.0 L1318.3 991.5 L1303.9 998.0 L1288.5 1002.2 L1272.4 1003.7 L1256.1 1002.6 L1240.0 999.1 L1224.5 993.6 L1209.9 986.9 L1196.1 979.4 L1183.1 972.0 L1170.6 965.1 L1158.3 959.1 L1145.9 954.1 L1133.1 950.1 L1119.8 946.7 L1106.1 943.6 L1092.1 940.3 L1078.2 936.3 L1064.8 931.2 L1052.5 924.9 L1041.4 917.2 L1032.0 908.3 L1024.1 898.4 L1017.6 887.9 L1012.0 877.2 L1006.9 866.6 L1001.5 856.2 L995.3 846.3 L987.8 836.6 L978.8 827.2 L968.4 817.6 L956.9 807.6 L944.9 797.0 L933.3 785.5 L922.9 773.2 L914.7 760.0 L909.4 746.3 L907.5 732.3 L909.3 718.5 L914.6 705.2 L923.1 692.8 L934.1 681.3 L946.8 670.9 L960.3 661.4 L974.1 652.7 L987.4 644.5 L999.9 636.6 L1011.6 628.7 L1022.6 620.6 L1033.2 612.6 L1043.8 604.7 L1054.9 597.2 L1066.7 590.6 L1079.5 585.2 L1093.4 581.2 L1108.0 579.0 L1123.2 578.5 L1138.5 579.5 L1153.5 581.5 L1167.8 584.1 L1181.3 586.6 L1193.9 588.3 L1205.7 588.7 L1217.1 587.3 L1228.4 584.1 L1240.0 579.0 L1252.4 572.5 L1265.9 565.0 L1280.5 557.3 L1296.3 550.2 L1313.0 544.3 L1330.2 540.3 L1347.5 538.3 L1364.4 538.8 L1380.7 541.4 L1396.0 546.1 L1410.4 552.3 L1424.0 559.5 L1436.9 567.5 L1449.6 575.7 L1462.4 583.9 L1475.4 592.2 L1488.7 600.6 L1502.2 609.2 L1515.4 618.4 L1527.9 628.4 L1538.9 639.4 L1547.8 651.5 L1553.8 664.6 L1556.6 678.6 L1555.8 693.0 L1551.7 707.6 L1544.5 721.8 L1535.1 735.4 L1524.1 748.2 L1512.7 760.0 Z" fill="none" stroke="#7d6a4f" stroke-width="0.9" stroke-opacity="0.32"></path>
<path d="M1509.2 760.0 L1508.4 771.1 L1509.0 782.4 L1510.3 793.9 L1511.6 805.7 L1512.1 817.7 L1511.2 829.7 L1508.3 841.5 L1503.4 852.8 L1496.6 863.5 L1488.3 873.5 L1479.0 882.9 L1469.2 891.9 L1459.6 900.8 L1450.6 910.1 L1442.3 920.1 L1434.7 931.2 L1427.5 943.3 L1420.3 956.4 L1412.5 970.3 L1403.6 984.3 L1393.1 997.9 L1380.8 1010.3 L1366.5 1020.8 L1350.3 1028.8 L1332.7 1033.9 L1314.1 1036.1 L1295.1 1035.4 L1276.1 1032.3 L1257.7 1027.3 L1240.0 1021.3 L1223.1 1014.9 L1207.0 1008.7 L1191.3 1003.3 L1175.9 998.9 L1160.3 995.5 L1144.5 992.8 L1128.3 990.4 L1111.9 987.9 L1095.5 984.5 L1079.6 980.0 L1064.5 973.9 L1050.8 966.2 L1038.6 956.9 L1028.2 946.2 L1019.4 934.7 L1011.8 922.7 L1004.9 910.7 L998.1 899.1 L990.8 888.1 L982.3 877.8 L972.4 867.9 L961.0 858.3 L948.2 848.7 L934.8 838.5 L921.3 827.6 L908.8 815.7 L898.3 802.8 L890.5 789.1 L886.2 774.7 L885.6 760.0 L888.8 745.4 L895.5 731.3 L904.9 718.0 L916.3 705.5 L928.8 694.0 L941.4 683.2 L953.5 672.9 L964.6 662.9 L974.6 652.9 L983.5 642.8 L991.7 632.4 L999.8 621.9 L1008.3 611.5 L1017.7 601.6 L1028.5 592.5 L1040.7 584.7 L1054.3 578.5 L1069.1 573.8 L1084.7 570.7 L1100.5 568.7 L1116.1 567.5 L1131.1 566.4 L1145.3 564.7 L1158.7 561.9 L1171.5 557.5 L1183.9 551.2 L1196.6 543.2 L1209.9 533.7 L1224.3 523.2 L1240.0 512.6 L1257.0 502.6 L1275.3 494.1 L1294.5 487.7 L1314.1 483.9 L1333.7 483.0 L1352.9 485.0 L1371.2 489.5 L1388.4 496.1 L1404.6 504.3 L1419.9 513.4 L1434.5 522.9 L1448.8 532.5 L1463.0 542.0 L1477.2 551.4 L1491.5 560.9 L1505.6 570.7 L1519.0 581.2 L1531.0 592.6 L1541.1 605.2 L1548.5 619.0 L1552.8 633.8 L1553.6 649.5 L1550.9 665.5 L1545.2 681.5 L1537.1 697.0 L1527.4 711.6 L1517.2 725.2 L1507.5 737.7 L1499.3 749.2 L1493.2 760.0 Z" fill="none" stroke="#7d6a4f" stroke-width="0.9" stroke-opacity="0.32"></path>
<path d="M774.6 820.0 L773.6 820.7 L772.7 821.3 L772.2 821.9 L771.9 822.5 L771.8 823.2 L771.9 823.9 L772.1 824.6 L772.2 825.4 L772.2 826.2 L772.0 826.9 L771.5 827.5 L770.9 827.9 L770.1 828.2 L769.2 828.3 L768.3 828.3 L767.5 828.4 L766.9 828.5 L766.4 828.8 L766.1 829.4 L766.0 830.3 L765.9 831.7 L765.9 833.3 L765.8 835.2 L765.6 837.2 L765.2 839.3 L764.5 841.1 L763.6 842.7 L762.5 843.9 L761.3 844.6 L760.0 844.8 L758.7 844.6 L757.5 843.9 L756.4 843.0 L755.3 841.9 L754.4 840.8 L753.6 839.7 L752.8 838.8 L752.0 838.0 L751.2 837.3 L750.4 836.7 L749.5 836.1 L748.8 835.5 L748.1 834.6 L747.7 833.6 L747.6 832.4 L747.7 831.0 L748.2 829.5 L749.1 827.9 L750.2 826.4 L751.4 825.0 L752.6 823.7 L753.8 822.8 L754.6 822.1 L755.1 821.6 L755.2 821.3 L754.8 821.1 L754.0 821.0 L752.8 820.8 L751.3 820.5 L749.8 820.0 L748.3 819.4 L747.0 818.6 L745.9 817.8 L745.2 816.9 L744.7 815.9 L744.6 815.0 L744.6 814.1 L744.8 813.2 L744.9 812.3 L745.1 811.4 L745.1 810.3 L745.0 809.1 L744.9 807.8 L744.7 806.2 L744.6 804.6 L744.6 802.9 L744.9 801.3 L745.4 799.9 L746.2 798.8 L747.3 798.0 L748.7 797.8 L750.2 798.0 L751.8 798.7 L753.4 799.8 L754.9 801.1 L756.3 802.6 L757.5 804.0 L758.5 805.3 L759.3 806.3 L760.0 807.0 L760.7 807.4 L761.3 807.5 L762.0 807.4 L762.7 807.1 L763.5 806.9 L764.3 806.7 L765.1 806.7 L765.8 807.0 L766.4 807.5 L766.8 808.2 L767.1 809.0 L767.3 809.9 L767.5 810.7 L767.7 811.4 L768.1 811.9 L768.6 812.2 L769.4 812.4 L770.5 812.4 L771.8 812.3 L773.3 812.3 L774.9 812.4 L776.5 812.7 L777.9 813.1 L778.9 813.8 L779.6 814.7 L779.9 815.8 L779.7 816.9 L779.0 818.0 L778.1 819.1 L777.0 820.0 Z" fill="none" stroke="#7d6a4f" stroke-width="1.6" stroke-opacity="0.55"></path>
<path d="M799.1 820.0 L799.0 822.0 L799.1 824.1 L799.4 826.2 L799.8 828.5 L800.1 830.7 L800.1 833.0 L799.7 835.2 L798.9 837.3 L797.6 839.2 L796.0 840.8 L794.1 842.1 L792.0 843.3 L790.0 844.3 L788.1 845.3 L786.5 846.5 L785.2 847.9 L784.1 849.7 L783.2 851.9 L782.4 854.6 L781.6 857.5 L780.7 860.6 L779.4 863.6 L777.8 866.5 L775.9 868.9 L773.6 870.7 L771.0 871.8 L768.3 872.2 L765.4 871.8 L762.7 870.8 L760.0 869.4 L757.5 867.6 L755.2 865.7 L753.0 863.9 L751.0 862.3 L749.0 860.9 L747.1 859.8 L745.1 858.8 L743.1 857.9 L741.2 856.9 L739.3 855.8 L737.7 854.3 L736.4 852.5 L735.4 850.4 L734.9 847.9 L734.7 845.3 L735.0 842.5 L735.4 839.9 L736.0 837.5 L736.4 835.3 L736.5 833.6 L736.1 832.2 L735.2 831.0 L733.7 830.1 L731.6 829.2 L729.0 828.3 L726.1 827.2 L723.1 825.9 L720.1 824.2 L717.5 822.2 L715.4 820.0 L713.9 817.6 L712.9 815.1 L712.5 812.5 L712.6 809.9 L713.1 807.4 L713.7 805.0 L714.4 802.5 L715.1 800.0 L715.6 797.4 L716.1 794.7 L716.6 791.8 L717.2 788.9 L718.0 786.0 L719.1 783.1 L720.6 780.6 L722.6 778.5 L725.2 777.0 L728.1 776.1 L731.4 776.0 L735.0 776.6 L738.5 777.8 L742.0 779.5 L745.2 781.4 L748.1 783.4 L750.7 785.2 L752.9 786.6 L754.9 787.6 L756.6 788.1 L758.3 788.1 L760.0 787.8 L761.7 787.2 L763.5 786.5 L765.4 785.9 L767.3 785.6 L769.2 785.7 L771.0 786.1 L772.7 786.8 L774.3 787.9 L775.8 789.1 L777.2 790.2 L778.6 791.3 L780.2 792.2 L782.0 792.8 L784.2 793.1 L786.7 793.3 L789.5 793.4 L792.7 793.5 L795.9 793.9 L799.2 794.6 L802.2 795.7 L804.8 797.2 L806.8 799.2 L808.1 801.5 L808.7 804.2 L808.5 807.0 L807.8 809.8 L806.7 812.6 L805.2 815.2 L803.8 817.7 L802.5 820.0 Z" fill="none" stroke="#7d6a4f" stroke-width="0.9" stroke-opacity="0.32"></path>
<path d="M828.7 820.0 L829.3 823.6 L829.7 827.3 L829.8 831.0 L829.3 834.7 L828.2 838.3 L826.4 841.6 L824.0 844.6 L821.2 847.2 L818.1 849.6 L814.9 851.7 L811.9 853.7 L809.2 855.8 L807.0 858.1 L805.2 860.7 L803.8 863.8 L802.6 867.3 L801.5 871.2 L800.3 875.4 L798.8 879.7 L796.8 883.8 L794.3 887.4 L791.3 890.3 L787.8 892.4 L783.9 893.5 L779.8 893.8 L775.6 893.2 L771.4 891.9 L767.4 890.3 L763.6 888.4 L760.0 886.7 L756.6 885.1 L753.3 883.9 L750.0 883.1 L746.7 882.5 L743.4 882.1 L740.0 881.6 L736.6 880.9 L733.4 879.8 L730.4 878.2 L727.7 875.9 L725.5 873.2 L723.7 870.0 L722.4 866.5 L721.3 862.9 L720.5 859.5 L719.6 856.4 L718.4 853.7 L716.8 851.4 L714.6 849.5 L711.6 847.9 L708.1 846.5 L703.9 845.0 L699.4 843.2 L694.9 841.2 L690.4 838.6 L686.5 835.6 L683.2 832.2 L680.8 828.3 L679.3 824.2 L678.8 820.0 L679.0 815.8 L679.8 811.6 L681.0 807.5 L682.4 803.5 L683.8 799.6 L685.1 795.7 L686.3 791.7 L687.5 787.7 L688.7 783.7 L690.1 779.6 L691.8 775.7 L694.1 772.1 L697.0 769.0 L700.6 766.5 L704.8 764.8 L709.6 764.0 L714.7 764.0 L719.9 764.8 L725.1 766.2 L729.9 767.9 L734.4 769.8 L738.3 771.4 L741.8 772.5 L744.7 773.1 L747.4 772.9 L749.8 772.0 L752.2 770.6 L754.6 768.7 L757.2 766.7 L760.0 764.7 L763.0 763.0 L766.1 761.8 L769.3 761.2 L772.5 761.0 L775.7 761.4 L778.8 762.1 L781.9 763.0 L785.0 763.8 L788.3 764.5 L791.8 765.0 L795.6 765.2 L799.8 765.2 L804.4 765.1 L809.4 765.2 L814.5 765.5 L819.5 766.4 L824.3 767.9 L828.6 770.1 L832.1 773.2 L834.7 776.9 L836.3 781.1 L836.9 785.8 L836.5 790.6 L835.4 795.5 L833.9 800.2 L832.1 804.7 L830.4 808.9 L828.9 812.8 L827.7 816.5 L827.0 820.0 Z" fill="none" stroke="#7d6a4f" stroke-width="0.9" stroke-opacity="0.32"></path>
<path d="M853.8 820.0 L853.5 824.9 L852.4 829.7 L850.5 834.3 L847.8 838.7 L844.6 842.7 L841.0 846.3 L837.3 849.7 L833.7 852.8 L830.6 856.0 L828.1 859.3 L826.2 863.0 L824.9 867.1 L824.1 871.9 L823.5 877.1 L822.8 882.8 L821.8 888.7 L820.3 894.5 L818.1 899.9 L815.0 904.7 L811.2 908.6 L806.6 911.5 L801.5 913.3 L796.1 914.1 L790.6 914.1 L785.0 913.4 L779.7 912.5 L774.5 911.6 L769.6 910.9 L764.7 910.6 L760.0 910.7 L755.2 911.1 L750.4 911.7 L745.4 912.2 L740.4 912.4 L735.3 912.0 L730.5 910.9 L725.8 909.0 L721.6 906.2 L717.9 902.6 L714.7 898.5 L711.9 894.1 L709.4 889.7 L707.0 885.5 L704.4 881.7 L701.6 878.4 L698.1 875.7 L694.0 873.4 L689.3 871.4 L683.9 869.4 L678.1 867.3 L672.3 864.7 L666.6 861.6 L661.5 857.8 L657.2 853.4 L654.0 848.4 L652.0 843.0 L651.1 837.2 L651.3 831.4 L652.3 825.6 L653.9 820.0 L655.8 814.5 L657.8 809.3 L659.6 804.1 L661.2 799.0 L662.6 793.9 L663.9 788.8 L665.3 783.7 L667.1 778.6 L669.3 773.8 L672.3 769.4 L676.2 765.6 L680.8 762.5 L686.2 760.2 L692.2 758.9 L698.4 758.4 L704.7 758.5 L710.7 759.1 L716.2 759.7 L721.1 760.1 L725.4 760.1 L729.0 759.2 L732.2 757.5 L735.0 754.9 L737.8 751.6 L740.6 747.7 L743.7 743.5 L747.2 739.3 L751.1 735.5 L755.4 732.3 L760.0 729.9 L764.8 728.3 L769.7 727.5 L774.7 727.4 L779.6 727.6 L784.6 728.1 L789.7 728.6 L795.0 728.9 L800.5 729.0 L806.4 729.0 L812.6 728.9 L819.1 728.9 L825.8 729.4 L832.5 730.5 L838.8 732.4 L844.6 735.4 L849.4 739.5 L853.1 744.6 L855.6 750.5 L856.9 757.1 L856.9 764.1 L855.9 771.1 L854.2 778.0 L852.2 784.6 L850.0 790.7 L848.2 796.4 L846.7 801.6 L845.8 806.4 L845.4 811.0 L845.4 815.5 L845.6 820.0 Z" fill="none" stroke="#7d6a4f" stroke-width="0.9" stroke-opacity="0.32"></path>
<path d="M868.0 820.0 L866.2 825.6 L863.7 830.9 L860.7 836.0 L857.6 840.7 L854.6 845.4 L852.2 849.9 L850.4 854.7 L849.4 859.8 L849.2 865.5 L849.7 871.8 L850.5 878.7 L851.3 886.3 L851.7 894.3 L851.4 902.3 L850.1 910.1 L847.7 917.4 L844.0 923.8 L839.2 929.0 L833.4 933.1 L826.9 935.9 L820.0 937.7 L812.9 938.7 L805.7 939.2 L798.8 939.5 L792.1 939.8 L785.6 940.5 L779.2 941.5 L772.9 942.8 L766.5 944.3 L760.0 945.7 L753.4 946.8 L746.6 947.1 L740.0 946.4 L733.5 944.7 L727.4 941.7 L721.7 937.8 L716.6 932.9 L712.1 927.6 L708.0 922.0 L704.2 916.6 L700.4 911.7 L696.5 907.4 L692.1 903.9 L687.1 901.0 L681.4 898.6 L675.1 896.5 L668.3 894.3 L661.3 891.7 L654.5 888.5 L648.1 884.6 L642.6 879.8 L638.3 874.2 L635.2 867.9 L633.5 861.1 L633.0 854.0 L633.5 846.9 L634.7 839.9 L636.2 833.0 L637.8 826.4 L639.3 820.0 L640.3 813.7 L641.1 807.5 L641.5 801.2 L641.9 794.9 L642.6 788.5 L643.8 782.3 L645.8 776.2 L648.9 770.5 L652.9 765.4 L658.0 761.1 L664.0 757.6 L670.5 754.9 L677.2 752.9 L683.8 751.4 L690.1 750.1 L695.7 748.6 L700.5 746.6 L704.6 743.8 L708.1 740.1 L711.2 735.5 L714.1 730.0 L717.2 723.8 L720.6 717.3 L724.5 710.9 L729.2 704.9 L734.4 699.7 L740.3 695.5 L746.6 692.5 L753.2 690.6 L760.0 689.7 L766.8 689.6 L773.7 689.9 L780.5 690.5 L787.4 691.1 L794.4 691.5 L801.7 691.7 L809.2 691.9 L816.9 692.1 L824.8 692.8 L832.6 694.2 L840.1 696.6 L847.0 700.2 L853.0 705.1 L857.9 711.3 L861.4 718.6 L863.4 726.9 L864.1 735.7 L863.7 744.7 L862.4 753.5 L860.6 761.9 L858.7 769.7 L857.0 776.8 L856.0 783.2 L855.6 788.9 L856.0 794.3 L857.0 799.4 L858.5 804.4 L860.2 809.5 L861.6 814.7 L862.7 820.0 Z" fill="none" stroke="#7d6a4f" stroke-width="0.9" stroke-opacity="0.32"></path>
<path d="M883.3 820.0 L882.0 826.4 L880.7 832.7 L879.9 839.0 L879.8 845.5 L880.5 852.3 L882.1 859.7 L884.4 867.8 L887.1 876.6 L889.8 886.1 L892.0 896.2 L893.2 906.5 L893.2 916.8 L891.6 926.5 L888.2 935.4 L883.2 943.2 L876.6 949.5 L868.9 954.5 L860.4 958.1 L851.3 960.6 L842.2 962.3 L833.1 963.6 L824.4 964.6 L816.0 965.9 L807.9 967.4 L800.0 969.2 L792.1 971.2 L784.2 973.0 L776.2 974.5 L768.1 975.2 L760.0 974.9 L752.0 973.3 L744.2 970.3 L736.9 966.0 L730.1 960.7 L723.9 954.7 L718.3 948.4 L713.1 942.2 L708.1 936.6 L703.0 931.8 L697.7 928.0 L691.7 925.1 L685.1 923.1 L677.7 921.6 L669.7 920.2 L661.4 918.6 L652.9 916.4 L644.8 913.2 L637.5 909.0 L631.1 903.7 L626.1 897.3 L622.4 890.1 L620.0 882.3 L618.8 874.2 L618.4 866.0 L618.4 857.9 L618.6 850.1 L618.5 842.4 L618.0 834.9 L617.1 827.5 L615.8 820.0 L614.4 812.4 L613.2 804.6 L612.5 796.6 L612.8 788.7 L614.3 781.0 L617.1 773.6 L621.4 766.8 L626.9 760.7 L633.3 755.4 L640.3 750.9 L647.5 746.9 L654.4 743.3 L660.7 739.6 L666.3 735.6 L671.0 731.0 L675.0 725.6 L678.3 719.2 L681.5 711.9 L684.6 704.0 L688.2 695.7 L692.5 687.5 L697.6 679.8 L703.6 673.0 L710.4 667.5 L718.0 663.3 L726.1 660.6 L734.5 659.2 L743.1 658.9 L751.6 659.3 L760.0 660.2 L768.3 661.0 L776.6 661.8 L785.0 662.3 L793.5 662.6 L802.1 662.9 L810.9 663.4 L819.6 664.6 L828.2 666.8 L836.3 670.3 L843.6 675.2 L849.8 681.7 L854.8 689.5 L858.4 698.5 L860.6 708.3 L861.5 718.5 L861.6 728.5 L861.2 738.1 L860.6 746.9 L860.4 754.8 L860.8 761.8 L862.1 768.0 L864.4 773.5 L867.6 778.7 L871.5 783.8 L875.7 789.0 L879.9 794.5 L883.8 800.4 L886.9 806.7 L889.2 813.2 L890.5 820.0 Z" fill="none" stroke="#7d6a4f" stroke-width="1.6" stroke-opacity="0.55"></path>
<path d="M916.4 820.0 L918.1 828.3 L920.6 836.9 L923.8 845.9 L927.7 855.6 L932.0 866.1 L936.2 877.3 L939.8 889.0 L942.3 901.2 L943.2 913.3 L942.0 925.1 L938.7 936.1 L933.2 945.8 L925.6 954.1 L916.4 960.8 L906.0 966.0 L894.8 969.7 L883.3 972.3 L872.0 974.2 L861.1 975.7 L850.8 977.2 L841.0 978.9 L831.7 981.0 L822.7 983.2 L813.8 985.5 L804.9 987.6 L795.9 989.0 L786.8 989.4 L777.7 988.5 L768.7 986.3 L760.0 982.7 L751.7 977.9 L744.0 972.3 L736.8 966.4 L730.1 960.7 L723.7 955.6 L717.3 951.5 L710.6 948.6 L703.4 947.0 L695.5 946.6 L686.7 946.9 L677.1 947.6 L666.9 948.2 L656.3 948.0 L645.8 946.8 L635.8 944.2 L626.6 940.1 L618.6 934.5 L612.0 927.5 L606.8 919.5 L602.9 910.7 L599.9 901.6 L597.6 892.3 L595.5 883.1 L593.3 874.2 L590.9 865.3 L588.0 856.6 L584.7 847.8 L581.4 838.8 L578.2 829.5 L575.8 820.0 L574.4 810.3 L574.4 800.5 L576.2 790.9 L579.7 781.7 L584.8 773.1 L591.4 765.2 L598.9 758.2 L606.9 751.8 L614.8 746.0 L622.2 740.5 L628.8 734.8 L634.4 728.8 L639.0 722.0 L642.8 714.5 L646.1 706.1 L649.2 697.0 L652.7 687.5 L656.9 678.1 L662.0 669.1 L668.2 661.0 L675.5 654.2 L683.8 648.9 L692.9 645.2 L702.5 643.0 L712.3 642.0 L722.2 642.0 L731.9 642.4 L741.4 642.9 L750.7 643.3 L760.0 643.2 L769.3 642.8 L778.7 642.1 L788.3 641.5 L798.0 641.4 L807.7 642.2 L817.1 644.2 L826.1 647.9 L834.2 653.2 L841.4 660.3 L847.3 668.8 L852.0 678.4 L855.5 688.6 L858.0 698.9 L860.1 708.9 L861.9 718.1 L864.1 726.3 L867.0 733.4 L870.8 739.5 L875.7 744.9 L881.7 749.8 L888.5 754.5 L895.8 759.5 L903.2 765.0 L910.2 771.2 L916.4 778.1 L921.5 785.7 L925.4 793.8 L928.1 802.3 L929.7 811.1 L930.6 820.0 Z" fill="none" stroke="#7d6a4f" stroke-width="0.9" stroke-opacity="0.32"></path>
</svg>