<?xml version="1.0"?>
<svg xmlns:dc="http://purl.org/dc/elements/1.1/" xmlns:cc="http://creativecommons.org/ns#" xmlns:rdf="http://www.w3.org/1999/02/22-rdf-syntax-ns#" xmlns:svg="http://www.w3.org/2000/svg" xmlns="http://www.w3.org/2000/svg" xmlns:sodipodi="http://sodipodi.sourceforge.net/DTD/sodipodi-0.dtd" xmlns:inkscape="http://www.inkscape.org/namespaces/inkscape" width="400mm" height="400mm" viewBox="0 0 400 400" version="1.1" id="svg8">
  <defs id="defs2"></defs>
  <namedview fit-margin-bottom="0" fit-margin-right="0" fit-margin-left="0" fit-margin-top="0" id="base" pagecolor="#ffffff" bordercolor="#666666" borderopacity="1.0" showgrid="false"></namedview>
  <metadata id="metadata5">
    <RDF>
      <Work>
        <format>image/svg+xml</format>
        <type></type>
        <title></title>
      </Work>
    </RDF>
  </metadata>
  <g transform="translate(95,51.5)" id="layer1">
    <rect style="fill:#fb0032;fill-opacity:1;stroke-width:5.07442" id="rect865" width="400" height="400" x="-95" y="-51.5"></rect>
    <path id="path857" style="fill:#5ffc5f;stroke-width:0.264583" d="m 79.515826,5.0267062 c -1.001434,-0.056 -2.073616,0.7208401 -2.384867,2.0117668 -0.105256,0.4365599 -0.352231,1.0286399 -0.548804,1.3156799 -0.196572,0.28704 -0.357603,0.78614 -0.357603,1.10897 0,0.32284 -0.09821,0.6475201 -0.21859,0.7219301 -0.120375,0.0744 -0.438391,0.88498 -0.706417,1.801427 -0.268025,0.91647 -0.586015,1.77948 -0.706935,1.91772 -0.120917,0.13824 -0.220141,0.47764 -0.220141,0.75396 0,0.27633 -0.16646,0.87727 -0.370001,1.33583 -0.203541,0.458556 -0.57554,1.488896 -0.826823,2.289266 -0.251288,0.80036 -0.620607,1.77123 -0.820624,2.15749 -0.200019,0.38625 -0.363802,0.87842 -0.363802,1.09399 0,0.215577 -0.177421,0.732977 -0.394806,1.149797 -0.217384,0.41681 -0.396081,1.01907 -0.396875,1.3379 -7.94e-4,0.31884 -0.121131,0.65321 -0.266652,0.74311 -0.145521,0.0899 -0.264583,0.35093 -0.264583,0.58033 0,0.2294 -0.476248,1.60425 -1.058334,3.055107 -0.58208,1.45085 -1.058333,2.85374 -1.058333,3.11764 0,0.2639 -0.169212,0.816887 -0.376203,1.228857 -0.206992,0.41198 -0.588553,1.46368 -0.848011,2.33681 -0.259458,0.87312 -0.566497,1.70041 -0.682128,1.83865 -0.11563,0.13825 -0.210325,0.51699 -0.210325,0.841287 0,0.32431 -0.178591,0.76822 -0.396875,0.9865 -0.218281,0.21828 -0.396875,0.73575 -0.396875,1.15032 0,0.41458 -0.184586,1.01771 -0.41031,1.33997 -0.225722,0.32227 -0.519713,1.25928 -0.653706,2.082557 -0.138118,0.84863 -0.45398,1.69287 -0.729155,1.94923 -0.266949,0.2487 -0.647893,1.12926 -0.84646,1.95699 -0.19857,0.82773 -0.459677,1.566127 -0.580327,1.640727 -0.120647,0.0746 -0.219625,0.4033 -0.219625,0.7307 0,0.3274 -0.174437,0.82651 -0.388088,1.10898 -0.213651,0.28247 -0.392277,0.81825 -0.396875,1.19063 -0.0046,0.37235 -0.183224,0.90815 -0.396875,1.19062 -0.213651,0.28247 -0.392277,0.756517 -0.396875,1.053157 -0.0046,0.29667 -0.231257,0.97582 -0.50333,1.50947 -0.389941,0.76487 -0.467305,1.35115 -0.365869,2.76883 0.149686,2.092057 -0.491683,3.841257 -1.99626,5.444627 -0.651878,0.694687 -2.182058,3.879617 -2.241206,4.664827 -0.02283,0.30294 -0.129754,0.55087 -0.237712,0.55087 -0.107961,0 -0.276625,0.427247 -0.374655,0.949807 -0.13007,0.69333 -0.02781,1.28325 0.378272,2.18281 0.66634,1.4761 0.949685,2.966427 0.708482,3.726387 -0.243906,0.76848 -1.586502,1.41554 -2.514057,1.21181 -0.818843,-0.17984 -1.031375,0.0148 -1.230416,1.12758 -0.07115,0.39778 -0.300744,0.98718 -0.510564,1.30948 -0.209817,0.3223 -0.381889,0.782427 -0.381889,1.022677 0,0.50414 -0.849907,3.08906 -1.080553,3.2861 -0.142893,0.12207 -0.456115,1.15567 -1.031462,3.405997 -0.125468,0.49074 -0.356314,1.02035 -0.513146,1.17719 -0.156834,0.15683 -0.285255,0.55187 -0.285255,0.87798 0,0.32611 -0.119063,0.66664 -0.264584,0.75654 -0.14552,0.0899 -0.264583,0.551997 -0.264583,1.026807 0,1.09307 -0.699955,3.18286 -1.487762,4.44108 -0.334111,0.533607 -0.688404,1.307517 -0.787033,1.719787 -0.09863,0.41227 -0.265623,0.86889 -0.371554,1.01441 -0.105929,0.14552 -0.256328,0.56224 -0.33383,0.92604 -0.155059,0.72748 -0.61804,2.058199 -1.16427,3.347079 -0.276201,0.65172 -0.405548,1.13173 -0.355018,1.50017 l -5.998082,17.11573 c -0.156689,0.27577 -0.335641,0.69088 -0.481625,1.14101 -0.244369,0.75354 -0.597681,1.72715 -0.785481,2.16371 -0.33979,0.78989 -0.703682,1.85629 -1.579232,4.63021 -0.52231,1.65476 -0.832245,2.45578 -1.364775,3.5269 -0.20482,0.41198 -0.376888,1.00729 -0.381888,1.32291 -0.0051,0.31565 -0.179604,0.87178 -0.387574,1.23561 -0.20796,0.3638 -0.382056,0.96525 -0.387056,1.33636 -0.0052,0.37107 -0.108207,0.78779 -0.228927,0.92604 -0.12071,0.13824 -0.608228,1.3227 -1.083138,2.63239 -0.4749,1.30969 -0.971301,2.58797 -1.103292,2.84065 -0.13198,0.25267 -0.240295,0.65161 -0.240295,0.88624 0,0.23466 -0.160377,0.80182 -0.356567,1.2604 -0.19619,0.45855 -0.565502,1.48839 -0.820622,2.28875 -0.25511,0.80037 -0.630001,1.8302 -0.833541,2.28875 -0.20354,0.45855 -0.37052,1.08363 -0.37052,1.38907 0,0.3054 -0.108599,0.55551 -0.241329,0.55551 -0.13273,0 -0.321413,0.47546 -0.419612,1.05678 -0.09821,0.58131 -0.28727,1.12456 -0.42013,1.20666 -0.13286,0.0821 -0.241846,0.43016 -0.241846,0.77358 0,0.34343 -0.168997,0.96108 -0.375687,1.37303 -0.2067,0.41199 -0.575812,1.28511 -0.820622,1.93995 -0.2448,0.65485 -0.552056,1.39735 -0.682646,1.65003 -0.13058,0.25267 -0.24098,0.66942 -0.245979,0.92604 -0.01158,0.62613 -1.105081,3.65149 -1.854151,5.13043 -0.11991,0.23675 -0.299225,0.86333 -0.398425,1.39215 -0.09921,0.52885 -0.285942,1.02672 -0.414962,1.10641 -0.12903,0.0797 -0.234611,0.42209 -0.234611,0.76068 0,0.33859 -0.177418,0.95623 -0.394808,1.37303 -0.21738,0.41682 -0.396085,0.94885 -0.396875,1.18184 -8.99e-4,0.23299 -0.269709,0.94737 -0.597379,1.5875 -0.32766,0.64013 -0.633012,1.43274 -0.678512,1.76165 -0.04554,0.3289 -0.252974,0.92421 -0.460954,1.32291 -0.20799,0.39871 -0.379031,0.99293 -0.379821,1.32036 -9e-4,0.32742 -0.121131,0.59531 -0.266651,0.59531 -0.14552,0 -0.266201,0.26789 -0.268201,0.59531 -0.0064,0.98399 -0.626497,1.92857 -1.201477,1.83036 -0.45845,-0.0783 -2.955212,-1.51593 -3.292822,-1.896 -0.07276,-0.0819 -1.322915,-0.93478 -2.7781246,-1.89548 -2.5717302,-1.69783 -5.2304644,-3.13211 -5.8063644,-3.13211 -0.58439,0 -1.318773,1.55633 -2.308902,4.89479 -0.30211,1.01862 -0.712883,2.22708 -0.913123,2.68563 -0.20025,0.45855 -0.364319,1.06394 -0.364319,1.34511 0,0.28118 -0.08352,0.59513 -0.186035,0.69766 -0.10252,0.1025 -0.229237,0.50657 -0.281637,0.8976 -0.05237,0.39105 -0.222304,0.86381 -0.377754,1.05111 -0.15545,0.1873 -0.340428,0.84523 -0.410828,1.46193 -0.07039,0.61666 -0.222207,1.18107 -0.337447,1.25417 -0.11524,0.0731 -0.293748,0.58061 -0.396358,1.12758 -0.10261,0.547 -0.292143,1.05979 -0.421163,1.13948 -0.12902,0.0797 -0.234611,0.48162 -0.234611,0.89297 0,0.41135 -0.177418,1.08852 -0.394808,1.50532 -0.21738,0.41682 -0.396085,1.01907 -0.396875,1.33792 -9e-4,0.31882 -0.114028,0.6491 -0.251147,0.73379 -0.137111,0.0847 -0.330965,0.71673 -0.430465,1.40457 -0.09952,0.68784 -0.275451,1.37054 -0.391191,1.51723 -0.33852,0.42897 -1.037797,2.59222 -1.041797,3.22357 -0.0021,0.31883 -0.112603,0.64654 -0.245463,0.72864 -0.13286,0.0821 -0.322029,0.62452 -0.420129,1.2051 -0.09808,0.58055 -0.273281,1.11458 -0.38964,1.18647 -0.11636,0.0719 -0.291541,0.57822 -0.389641,1.12554 -0.18881,1.05396 -0.294389,1.42361 -1.301729,4.56715 -0.34974,1.09138 -0.838125,2.69875 -1.085205,3.57188 -0.24708,0.87312 -0.617969,1.97829 -0.824239,2.45618 -0.20627,0.47786 -0.375171,1.15557 -0.375171,1.50585 0,0.35028 -0.119063,0.71056 -0.264583,0.80047 -0.14552,0.0899 -0.264584,0.40645 -0.264584,0.70331 0,0.29684 -0.166453,0.91501 -0.370003,1.37356 -0.386449,0.87059 -0.894926,2.65216 -1.144116,4.00855 -0.08021,0.43656 -0.30812,1.02864 -0.506428,1.31566 -0.19831,0.28705 -0.360704,0.77341 -0.360704,1.08056 0,0.30718 -0.08887,0.64752 -0.197919,0.75655 -0.218069,0.21807 -0.815091,2.41035 -1.047482,3.84678 -0.08133,0.50276 -0.31065,1.07651 -0.50953,1.27539 -0.198879,0.19887 -0.361735,0.70327 -0.361735,1.12086 0,0.41756 -0.119063,0.83304 -0.264584,0.92295 -0.145518,0.0899 -0.265342,0.42425 -0.266134,0.7431 -7.93e-4,0.31883 -0.179493,0.9211 -0.396875,1.3379 -0.217389,0.41682 -0.395324,1.03446 -0.395324,1.37305 0,0.33856 -0.11553,0.68731 -0.256831,0.77462 -0.141301,0.0873 -0.33528,0.74909 -0.430983,1.47071 -0.09573,0.72163 -0.26739,1.31207 -0.38137,1.31207 -0.11399,0 -0.287306,0.47546 -0.385506,1.05678 -0.09822,0.58131 -0.287279,1.12455 -0.420129,1.20665 -0.132871,0.0821 -0.241848,0.48115 -0.241848,0.88676 0,0.40563 -0.1701,1.0828 -0.378269,1.50534 -0.208172,0.42254 -0.426876,1.12559 -0.486275,1.56218 -0.05943,0.43656 -0.24652,1.12874 -0.415481,1.5384 -0.168968,0.40965 -0.307475,0.90876 -0.307475,1.10897 0,0.20024 -0.119062,0.43773 -0.264583,0.52763 -0.145518,0.0899 -0.264583,0.40466 -0.264583,0.69919 0,0.29451 -0.527185,2.16231 -1.171504,4.15115 -0.644321,1.98888 -1.486154,4.68789 -1.871205,5.99758 -0.385048,1.30969 -0.795271,2.56386 -0.911571,2.78691 -0.1163,0.22307 -0.293039,0.81838 -0.39274,1.32291 -0.09974,0.50456 -0.283202,1.15539 -0.407212,1.44643 -0.390308,0.91599 -1.066602,3.25644 -1.066602,3.69123 0,0.22928 -0.10819,0.62375 -0.24081,0.87643 -0.392822,0.74845 -1.040051,2.76688 -1.2299,3.83595 -0.09719,0.54732 -0.282323,1.0603 -0.411345,1.13999 -0.129029,0.0797 -0.234611,0.42209 -0.234611,0.76068 0,0.33858 -0.177417,0.95623 -0.394806,1.37302 -0.217382,0.41686 -0.396087,0.96809 -0.396875,1.22473 -7.94e-4,0.25662 -0.106434,0.67337 -0.234096,0.92605 -0.319849,0.63312 -0.875434,2.3882 -1.108977,3.50213 -0.173537,0.82767 -0.42314,1.61276 -1.050581,3.30729 -0.107759,0.29104 -0.578016,1.89838 -1.044898,3.57187 -0.466878,1.67349 -1.015613,3.35873 -1.219562,3.74499 -0.454681,0.86106 -0.481087,2.12442 -0.05323,2.55231 0.24665,0.24632 32.729844,0.30263 145.190101,0.25114 l 144.87281,-0.0661 -0.0181,-1.27746 c -0.01,-0.70262 -0.14664,-1.35749 -0.30386,-1.45521 -0.15721,-0.0977 -1.44747,-2.43996 -2.867,-5.20483 -3.91962,-7.63444 -4.87938,-9.48848 -5.13768,-9.92187 -0.13008,-0.21828 -0.62333,-1.23034 -1.09554,-2.24896 -0.47222,-1.01864 -0.95389,-1.9172 -1.07073,-1.99678 -0.11687,-0.0796 -1.24644,-2.22269 -2.50992,-4.7625 -1.26351,-2.53979 -2.57544,-5.03251 -2.91559,-5.53919 -0.34012,-0.50673 -0.61857,-1.12172 -0.61857,-1.36686 0,-0.24511 -0.0893,-0.4853 -0.19844,-0.5338 -0.17573,-0.0781 -0.77245,-1.20742 -1.23558,-2.33733 -0.0895,-0.21828 -0.69577,-1.3494 -1.3472,-2.51354 -0.65143,-1.16417 -1.4531,-2.65245 -1.78129,-3.30729 -0.32819,-0.65484 -0.65635,-1.25013 -0.72915,-1.32292 -0.13386,-0.13388 -0.3153,-0.50263 -1.88774,-3.83646 -0.48046,-1.01864 -0.94553,-1.91158 -1.03353,-1.98437 -0.088,-0.0728 -0.55935,-0.96576 -1.04748,-1.98437 -0.48813,-1.01865 -0.9553,-1.91149 -1.0387,-1.98438 -0.24371,-0.21307 -1.07797,-1.87187 -1.07797,-2.14355 0,-0.1366 -0.29766,-0.71974 -0.66146,-1.29603 -0.3638,-0.57632 -0.66146,-1.18991 -0.66146,-1.36324 0,-0.17333 -0.17321,-0.50652 -0.38498,-0.74052 -0.21175,-0.234 -1.50629,-2.62445 -2.87683,-5.31233 -3.15987,-6.19715 -3.44209,-6.7202 -3.6835,-6.82749 -0.10914,-0.0485 -0.19844,-0.19945 -0.19844,-0.33589 0,-0.30393 -1.6453,-3.75724 -1.87792,-3.94137 -0.0919,-0.0728 -0.25905,-0.42994 -0.37104,-0.79375 -0.11199,-0.36382 -0.27688,-0.72096 -0.36638,-0.79375 -0.40508,-0.32924 -3.20549,-5.8208 -3.20549,-6.28591 0,-0.15666 -0.0893,-0.32409 -0.19844,-0.37259 -0.10914,-0.0485 -0.64712,-0.98137 -1.19579,-2.07275 -0.54867,-1.0914 -1.82686,-3.53218 -2.84014,-5.42395 -1.01327,-1.89178 -1.96305,-3.70748 -2.11098,-4.0349 -0.14793,-0.32742 -0.38977,-0.8632 -0.53743,-1.19063 -0.14769,-0.32742 -0.50341,-0.9525 -0.79014,-1.38906 -0.28673,-0.43659 -0.64944,-1.08889 -0.80615,-1.44952 -0.15672,-0.36065 -0.55994,-1.19409 -0.89607,-1.85208 -0.33613,-0.65799 -1.12383,-2.20835 -1.7508,-3.44527 -0.62697,-1.23693 -1.20797,-2.30847 -1.29087,-2.38125 -0.0829,-0.0728 -0.37285,-0.60854 -0.64441,-1.19063 -0.54503,-1.16829 -0.84287,-1.75683 -1.86138,-3.67731 -0.37809,-0.71289 -0.68782,-1.39978 -0.68782,-1.52651 0,-0.12674 -0.31977,-0.73422 -0.71106,-1.3498 -0.9807,-1.54281 -4.31602,-8.13943 -4.31602,-8.53641 0,-0.17785 -0.17859,-0.47154 -0.39688,-0.65268 -0.21828,-0.18116 -0.39687,-0.543 -0.39687,-0.80409 0,-0.26109 -0.10732,-0.51425 -0.23874,-0.56274 -0.13143,-0.0485 -0.79597,-1.14774 -1.47692,-2.44224 -1.37962,-2.62271 -1.33373,-2.53328 -2.53473,-4.92218 -0.47553,-0.94588 -0.93491,-1.77929 -1.0206,-1.85208 -0.25679,-0.21809 -1.87276,-3.58026 -1.87276,-3.89641 0,-0.16108 -0.0893,-0.33234 -0.19844,-0.38084 -0.10914,-0.0485 -0.90305,-1.45759 -1.76423,-3.13108 -3.05061,-5.92812 -6.1206,-11.9021 -7.16494,-13.94127 -0.58199,-1.13641 -1.11782,-2.12553 -1.19062,-2.19832 -0.1242,-0.12403 -0.54528,-0.9829 -1.55701,-3.175 -0.23508,-0.50932 -0.50031,-0.98554 -0.58911,-1.05833 -0.16357,-0.13406 -2.87648,-5.44314 -3.65043,-7.14375 -0.2318,-0.50932 -0.48117,-0.98554 -0.55397,-1.05833 -0.0728,-0.0728 -0.36922,-0.60854 -0.65887,-1.19063 -0.28964,-0.58208 -0.60042,-1.11783 -0.69092,-1.19062 -0.0905,-0.0728 -0.61873,-1.06654 -1.17357,-2.20866 -0.55483,-1.14213 -1.40767,-2.22983 -1.40767,-2.22983 l -8.76897,-17.01601 c 0,0 -3.24331,-6.895149 -4.39353,-8.401556 -0.49406,-0.64704 -1.02842,-1.66137 -1.18804,-2.25412 -0.35117,-1.30417 -1.16676,-3.104397 -2.05414,-4.534607 -0.8714,-1.40446 -4.00596,-7.663327 -4.00596,-7.998997 0,-0.14514 -0.24016,-0.569257 -0.53381,-0.942567 -0.29364,-0.37331 -1.55106,-2.68129 -2.79466,-5.128887 -2.23059,-4.39008 -2.76175,-5.381227 -3.02153,-5.640997 -0.0727,-0.0728 -0.32463,-0.54901 -0.56017,-1.05833 -0.49349,-1.06711 -1.96256,-4.018827 -2.33836,-4.698417 -0.14017,-0.25349 -0.62429,-1.2326 -1.0759,-2.17558 -0.45161,-0.94298 -0.90314,-1.77628 -1.00304,-1.85208 -0.25457,-0.193007 -1.10794,-1.847987 -1.10794,-2.148707 0,-0.13662 -0.27233,-0.69225 -0.60565,-1.23507 -0.33333,-0.54281 -0.83124,-1.5228 -1.10639,-2.177637 -0.27515,-0.65485 -0.77158,-1.56375 -1.10329,-2.01952 -0.33171,-0.45577 -0.80564,-1.34874 -1.05265,-1.98437 -0.24701,-0.63564 -0.54306,-1.279657 -0.65836,-1.431437 -0.11531,-0.15178 -1.05773,-1.93772 -2.09393,-3.96875 -1.0362,-2.031037 -2.05398,-3.880597 -2.26188,-4.110337 -0.20791,-0.22974 -0.37827,-0.53921 -0.37827,-0.6873 0,-0.46093 -0.84369,-2.025047 -1.65209,-3.062337 -0.51697,-0.66334 -0.98713,-0.99219 -1.418,-0.99219 -0.99346,0 -2.51386,1.101 -4.23076,3.063887 -2.65754,3.03832 -6.29841,6.662137 -6.86108,6.829047 -0.44191,0.13109 -0.7439,-0.16786 -1.71979,-1.70274 -0.65106,-1.023997 -1.54109,-2.324417 -1.97765,-2.890267 -0.43656,-0.56584 -1.09141,-1.52993 -1.45521,-2.14198 -0.36381,-0.612057 -0.987,-1.543047 -1.38545,-2.069127 -0.39844,-0.52609 -0.81516,-1.07776 -0.92604,-1.22576 -0.11088,-0.148 -0.66781,-0.98145 -1.237649,-1.85209 -1.281832,-1.958487 -2.185048,-3.269337 -3.139861,-4.558367 -0.404728,-0.54641 -0.8481,-1.26111 -0.985469,-1.588537 -0.137372,-0.32742 -0.371774,-0.59531 -0.520899,-0.59531 -0.149122,0 -0.271301,-0.12267 -0.271301,-0.27233 0,-0.25677 -2.783652,-4.471437 -3.140377,-4.754757 -0.246864,-0.19604 -1.886706,-2.63709 -1.886706,-2.80861 0,-0.15154 -1.60297,-2.510566 -1.86707,-2.747626 C 87.691825,15.4944 84.728638,11.138493 84.294329,10.408853 83.923196,9.7853429 81.38455,6.366993 80.759663,5.6494563 80.411789,5.2500162 79.971009,5.0522362 79.515812,5.0267562 Z"></path>
    <path id="path859" d="m 84.91838,122.66777 c -0.06921,-0.0692 -2.738199,-0.13228 -5.931077,-0.14013 -3.192878,-0.008 -7.174449,-0.12882 -8.847939,-0.26883 -1.67349,-0.14 -6.733646,-0.38123 -11.244792,-0.53607 -4.511145,-0.15483 -14.552078,-0.61324 -14.552078,-0.61324 0,0 -10.162064,-0.73742 -14.31343,-1.00573 -3.76928,-0.24248 -8.28199,-0.5741 -10.02824,-0.73693 -1.74625,-0.16283 -4.48469,-0.41768 -6.08542,-0.56634 -5.94576,-0.5522 -10.11323,-0.98873 -12.17083,-1.27487 -1.16417,-0.16189 -3.66448,-0.48321 -5.55625,-0.71402 -6.58466,-0.8034 -8.74595,-1.10286 -11.1125,-1.53968 -1.30969,-0.24175 -3.69094,-0.67962 -5.29167,-0.97305 -14.1077,-2.58612 -22.35461,-5.33025 -24.96958,-8.30854 -0.98269,-1.11921 -1.09243,-2.36747 -0.29704,-3.37864 1.16818,-1.4851 4.81668,-3.317727 10.05308,-5.049618 1.89262,-0.625967 9.48362,-2.477188 12.06389,-2.942024 3.49559,-0.629734 5.11661,-0.925724 6.58924,-1.203166 2.60229,-0.490273 16.98514,-2.454836 21.29098,-2.908152 1.38683,-0.146005 4.90277,-0.496453 7.81318,-0.778777 2.91042,-0.282324 5.70839,-0.580557 6.21771,-0.662739 1.16676,-0.188264 12.51403,-1.010137 14.81667,-1.073158 0.94588,-0.02588 2.20672,-0.131479 2.80187,-0.234646 0.86745,-0.150373 1.27925,-0.07124 2.07617,0.398952 0.70867,0.418121 0.89177,0.642761 0.63771,0.782365 -0.19601,0.10771 -2.18239,0.327838 -4.4142,0.489175 -2.23179,0.161335 -4.85117,0.409139 -5.82083,0.550672 -0.96966,0.141534 -3.66801,0.501984 -5.99635,0.801 -19.31493,2.480516 -29.87528,5.214559 -33.44995,8.660088 -1.13636,1.095298 -1.34276,1.443948 -1.34276,2.268158 0,1.91554 2.44967,3.77255 7.14375,5.41543 3.25202,1.13818 10.35881,2.85491 14.94896,3.61111 1.45521,0.23973 3.59834,0.60762 4.7625,0.81752 3.05614,0.55102 21.27341,2.54009 21.27341,2.54009 0,0 17.945014,1.31288 28.732842,1.95148 8.519226,0.50303 21.976709,0.6365 40.084374,0.39756 11.13234,-0.14689 20.59781,-0.32846 21.03437,-0.40348 0.43656,-0.075 4.36563,-0.31548 8.73125,-0.53436 4.36563,-0.21888 8.65188,-0.45163 9.525,-0.51721 3.50363,-0.26318 10.7499,-0.71654 13.49375,-0.84424 3.25631,-0.58662 5.90474,-0.5879 8.88533,-0.87444 4.75392,-0.45242 11.80401,-1.30352 14.26571,-1.72218 1.23693,-0.21037 3.8563,-0.63656 5.82084,-0.94709 4.55045,-0.71928 12.15677,-2.44289 15.13685,-3.43004 3.53966,-1.17253 6.10122,-2.48698 7.18562,-3.68725 3.56111,-3.941727 -2.61123,-7.651617 -17.55997,-10.554443 -7.74868,-1.504677 -18.65834,-3.04328 -25.5317,-3.600765 -2.55333,-0.207094 -4.7291,-0.430088 -4.83505,-0.49554 -0.10594,-0.06545 -2.51435,-0.25654 -5.352,-0.424641 -5.26327,-0.311793 -6.35,-0.510148 -6.35,-1.159023 0,-0.296018 0.60158,-0.353944 3.10885,-0.299342 4.21697,0.09184 16.28416,0.819508 19.38073,1.168691 1.38245,0.15589 4.23995,0.407771 6.35,0.559734 2.11005,0.151961 4.55083,0.379754 5.42396,0.506207 0.87312,0.126452 2.65906,0.305207 3.96875,0.397234 2.83491,0.1992 10.31749,1.055328 14.02291,1.60445 1.45521,0.215654 3.7174,0.503399 5.02709,0.639437 2.22927,0.231555 7.04374,0.999553 10.05416,1.603838 0.72761,0.14605 2.57308,0.496006 4.10105,0.777676 3.40103,0.626957 10.91575,2.44501 13.16019,3.183872 7.06845,2.326923 10.57804,4.769565 10.02411,6.976655 -0.71536,2.85015 -9.15691,6.33159 -20.93535,8.6341 -0.87312,0.17068 -2.06375,0.41322 -2.64583,0.53897 -0.58208,0.12576 -3.55864,0.6584 -6.61458,1.18366 -5.06664,0.87087 -7.11645,1.16416 -13.89063,1.98753 -1.23692,0.15034 -3.14192,0.39287 -4.23333,0.53896 -2.19138,0.29331 -11.19683,1.19634 -15.74271,1.57861 -1.60073,0.1346 -4.51776,0.37977 -6.48229,0.54481 -1.96453,0.16504 -5.82083,0.47107 -5.82083,0.47107 l -10.75005,0.7934 c 0,0 -11.05823,0.50196 -14.91454,0.7129 -3.8563,0.21094 -12.54786,0.50722 -19.31458,0.6584 -6.76672,0.15119 -13.0175,0.37948 -13.89062,0.50732 -1.62843,0.23844 -23.491252,0.37786 -23.71786,0.15125 v 1e-5 0 z m 7.644927,-9.28841 c -0.08461,-0.0846 -3.944221,-0.26718 -8.576911,-0.4057 -11.365023,-0.33982 -19.656152,-0.83613 -28.399115,-1.69999 -2.255573,-0.22286 -5.462953,-0.52687 -7.127513,-0.67557 -1.664557,-0.1487 -3.129854,-0.33426 -3.256214,-0.41235 -0.12636,-0.0781 -1.85331,-0.24409 -1.85331,-0.24409 l -8.92963,-1.45314 c 0,0 -11.02644,-2.17403 -14.94896,-3.72164 -4.21505,-1.66303 -5.69118,-3.37905 -4.36114,-5.069912 0.80648,-1.025282 4.85303,-2.879262 8.46218,-3.877064 3.7147,-1.026983 12.67949,-2.8268 15.89383,-3.190925 1.29706,-0.146934 2.92477,-0.378024 3.61713,-0.513535 0.69236,-0.135512 1.95079,-0.322533 2.796511,-0.415602 l 2.017427,-0.504926 c 0.02013,0.975087 -0.662181,3.0641 -1.41896,4.344442 0,0 -0.102361,-0.419524 -1.694848,-0.138662 -1.74112,0.313055 -5.9716,1.747655 -7.10983,2.411018 -2.01698,1.175501 -2.51215,2.728396 -1.26703,3.973506 0.8144,0.81441 5.50887,2.66373 5.50887,2.66373 l 2.82682,0.64789 c 0,0 1.81576,0.37117 2.907167,0.60368 2.116193,0.45084 3.877955,0.72523 8.73125,1.35984 1.673489,0.21883 3.860548,0.51805 4.860131,0.66493 0.99958,0.14689 3.678486,0.38736 5.953125,0.53438 2.274636,0.14702 6.338358,0.45908 9.030494,0.69348 8.070995,0.70271 32.779479,0.47207 46.831249,-0.43714 5.89495,-0.38143 19.0841,-1.69477 19.85152,-1.97677 0.21401,-0.0786 1.3416,-0.2579 2.50577,-0.39835 2.12383,-0.25624 9.45885,-1.87322 9.45885,-1.87322 1.69054,-0.39802 7.04256,-2.29988 7.34219,-4.15257 0,-0.956009 -1.01939,-2.096797 -2.64583,-2.960913 -1.21732,-0.646747 -5.91556,-2.141826 -6.73064,-2.141826 -1.60982,0.745816 -2.09731,-0.785703 -2.62501,-2.387891 -0.20368,-0.651192 -0.45316,-1.422109 -0.5544,-1.71315 -0.15282,-0.439333 -0.13684,-0.45647 0.0942,-0.100957 0.19229,0.295952 0.87265,0.484891 2.20279,0.611732 2.73122,0.260443 11.00388,1.453997 12.13339,1.750565 0.52162,0.136962 1.98833,0.430366 3.25936,0.652016 4.47636,0.780613 10.16226,2.471555 12.80317,3.807563 1.62554,0.822341 2.94648,1.907426 2.99557,2.460721 0.16747,1.88735 -1.1534,2.98405 -5.58672,4.63854 -8.82491,2.96926 -18.95985,4.36051 -26.9875,5.31661 -2.40109,0.29962 -5.37765,0.61778 -6.61458,0.70702 -1.23693,0.0892 -3.15666,0.27819 -4.26606,0.41987 -4.49578,0.57416 -21.07557,1.49678 -27.88081,1.55149 -2.8112,0.0226 -3.82798,0.12343 -4.21776,0.41824 -0.42229,0.3194 -1.79025,0.38846 -7.694963,0.38846 -3.949758,0 -7.250602,-0.0692 -7.33521,-0.15383 z M 41.895094,88.372428 c 0.25466,-0.146039 0.46302,-0.438205 0.46302,-0.649255 0,-0.307962 0.48977,-0.383728 2.48047,-0.383728 3.543452,0.352631 4.075672,0.940384 4.075672,0.940384 -0.05759,0.05759 -1.764641,0.16173 -3.793452,0.231418 -2.54086,0.08728 -3.54465,0.04408 -3.22571,-0.138819 z" style="fill:#e3ea1a;stroke-width:0.264583"></path>
    <path id="path853" d="m 38.113074,88.065374 c -0.90761,-0.541718 -1.76273,-1.33862 -2.3034,-2.14657 -1.17734,-1.759376 -1.15754,-3.053871 0.0917,-5.995725 0.71,-1.67199 0.97755,-2.716054 1.0538,-4.112358 0.0809,-1.481421 0.31827,-2.339089 1.13894,-4.115438 1.77324,-3.838154 1.78865,-3.962133 0.84754,-6.817905 -0.96211,-2.919542 -0.98074,-3.253147 -0.29328,-5.251985 0.33161,-0.964139 0.50619,-2.104546 0.4761,-3.109907 -0.0262,-0.873125 0.0524,-2.327812 0.17465,-3.232639 l 0.22217,-1.64514 -1.49735,-1.521428 c -1.64828,-1.674767 -2.07249,-2.715987 -1.85554,-4.554323 0.16044,-1.35953 0.7875,-3.34877 1.31908,-4.184557 0.20498,-0.322303 0.3727,-0.771152 0.3727,-0.997445 0,-0.226293 0.32743,-1.153216 0.72761,-2.059829 l 0.7276,-1.648389 0.13229,-18.785416 0.1323,-18.785417 h 0.66145 0.66146 l 0.0684,14.750521 c 0.0376,8.112786 0.1269,14.750521 0.19844,14.750521 0.0715,0 0.38201,-0.251945 0.68995,-0.55988 0.79916,-0.799161 2.87421,-0.591624 3.898735,0.389938 1.263009,1.21004 2.679697,0.818946 2.690942,-0.742871 0.0092,-1.2764 0.892876,-2.91411 1.912406,-3.544215 0.720256,-0.445143 1.33873,-0.570056 2.822506,-0.570056 2.132351,0 2.928739,0.313661 4.141314,1.631072 1.999284,2.172136 2.356265,3.350659 1.715204,5.662528 -0.59067,2.130136 -1.882453,4.078758 -3.155906,4.760608 -0.613367,0.328414 -0.99106,0.739841 -1.047869,1.141463 -0.118136,0.835165 0.951463,4.114861 1.618544,4.962916 0.472387,0.600541 0.663268,0.657143 1.749224,0.518689 3.765489,-0.480081 4.520837,-0.483896 5.482241,-0.02768 0.912741,0.433125 0.951716,0.505293 0.816652,1.512263 -0.153739,1.146207 -0.973749,2.116995 -1.878891,2.224368 -0.305356,0.03622 -1.150506,0.188658 -1.87811,0.338746 -0.727604,0.150087 -2.601246,0.386755 -4.163648,0.525928 -3.181048,0.283353 -3.849087,0.612579 -4.723622,2.327934 -0.955188,1.873546 -0.55794,2.635766 1.828247,3.507946 1.43818,0.525674 2.372778,1.112758 4.317617,2.712188 0.675039,0.555152 1.329883,1.009478 1.455208,1.009616 0.443934,5.29e-4 0.42327,3.841851 -0.0258,4.79379 -0.634137,1.344284 -1.069626,2.042808 -1.677273,2.690357 -0.302128,0.321966 -0.922705,1.418831 -1.379061,2.437477 -0.456356,1.018645 -0.937858,2.055243 -1.070004,2.303549 -0.558279,1.049015 -0.576356,2.491571 -0.04437,3.540988 0.619648,1.222349 0.96516,3.04093 0.722812,3.804497 -0.231386,0.729033 -1.611156,1.416462 -2.430362,1.210855 -0.657982,-0.165143 -3.669242,-3.167954 -4.221652,-4.20981 -0.757589,-1.428824 -0.70576,-2.216769 0.250188,-3.803552 0.504838,-0.837985 1.000265,-2.026507 1.100947,-2.64116 0.100679,-0.614651 0.528137,-1.626683 0.949907,-2.248959 1.039698,-1.533972 1.016063,-2.374355 -0.08342,-2.966042 -1.257787,-0.676881 -2.327894,-0.465413 -2.972988,0.587502 -0.293008,0.478245 -1.098288,1.726911 -1.789512,2.774817 -0.691224,1.047906 -1.256771,2.072529 -1.256771,2.276941 0,0.847609 -1.155785,4.165169 -1.711795,4.913537 -0.3297,0.443759 -0.66826,1.259541 -0.75236,1.812843 -0.0841,0.553305 -0.53259,1.862992 -0.99667,2.910417 -0.46407,1.047427 -1.01254,2.292691 -1.21883,2.767259 -0.82761,1.903965 -0.40573,4.562419 1.0129,6.382729 0.27046,0.347046 0.49175,1.015478 0.49175,1.485407 0,0.762487 -0.12193,0.900983 -1.13332,1.287235 -1.48055,0.565428 -1.43568,0.571611 -3.11172,-0.428749 z" style="fill:#100606;stroke-width:0.264583"></path>
    <path id="rect883" style="fill:#fb0032;fill-opacity:1;stroke:none;stroke-width:4.99999" d="m 31.274484,233.08407 c -3.694533,0.0314 -7.622778,0.43016 -8.850622,1.05834 -0.25269,0.12927 -0.577747,0.23513 -0.722437,0.23513 -0.52297,0 -4.657296,2.08336 -5.432227,2.7373 -2.569808,2.16861 -4.41778,4.37983 -5.23017,6.25853 -1.1722713,2.71093 -1.6158659,7.15556 -0.963766,9.6573 0.15172,0.58208 0.370229,1.47505 0.485757,1.98437 0.525542,2.31696 2.63769,5.52934 5.07101,7.71321 1.82299,1.63613 5.313741,3.92846 5.982581,3.92846 0.18854,0 0.34313,0.11128 0.34313,0.24701 0,0.13568 0.267883,0.32237 0.595313,0.41495 0.327422,0.0925 0.952502,0.32589 1.389062,0.51885 1.228532,0.54303 2.004484,0.8423 3.439584,1.32548 4.578511,1.54152 10.035524,4.76128 10.854634,6.40427 0.15309,0.30705 0.436853,0.74911 0.630454,0.98237 0.40938,0.49329 0.303639,5.36421 -0.122991,5.66891 -0.1392,0.0994 -0.565833,0.60137 -0.948262,1.11516 -0.397401,0.53391 -1.360318,1.26394 -2.247407,1.70379 -1.47193,0.72982 -1.766488,0.77523 -5.698879,0.88262 -4.307499,0.11766 -5.868588,-0.11568 -8.116301,-1.21438 -1.477539,-0.72226 -3.039173,-2.2927 -3.867462,-3.88814 -0.74209,-1.42946 -0.785352,-1.68711 -0.79375,-4.72736 -0.005,-1.76863 0.07998,-3.88789 0.188619,-4.70926 0.271629,-2.05436 0.212696,-2.06881 -4.033864,-0.99582 -0.654839,0.16545 -1.691841,0.35809 -2.304251,0.42839 -0.6124,0.0703 -1.2624283,0.30737 -1.4443579,0.5266 -0.398799,0.48051 -0.510344,5.38099 -0.149344,6.56135 0.133511,0.43656 0.3413776,1.21047 0.4619856,1.71979 0.6339313,2.67713 2.2619233,5.04838 4.7588833,6.9324 2.586602,1.9517 7.573593,3.63294 10.885642,3.66953 0.92488,0.0103 1.920184,0.12092 2.211234,0.24599 0.836874,0.35962 4.77135,0.2958 7.804692,-0.12661 4.033226,-0.56179 7.35366,-1.54178 8.700762,-2.5678 0.347049,-0.26435 0.750507,-0.48059 0.896586,-0.48059 0.377341,0 3.773082,-2.81623 4.240051,-3.51658 0.214257,-0.32139 0.62865,-0.85582 0.920874,-1.18753 0.292222,-0.33171 0.861026,-1.28421 1.264005,-2.11667 0.402979,-0.83245 0.832006,-1.72032 0.953947,-1.97299 0.121944,-0.25271 0.223742,-0.72896 0.226343,-1.05834 0.0026,-0.3294 0.169479,-1.37459 0.37052,-2.32285 0.303823,-1.43314 0.308284,-2.08201 0.02636,-3.84268 -0.38997,-2.43551 -0.930262,-4.15785 -1.70584,-5.441 -0.298773,-0.49432 -0.627131,-1.07725 -0.730187,-1.29553 -0.57799,-1.22425 -4.032419,-4.70257 -5.871993,-5.91283 -3.53654,-2.32669 -9.092332,-4.91601 -13.127881,-6.11796 -0.87312,-0.26006 -1.700398,-0.5765 -1.838648,-0.70331 -0.138239,-0.12682 -0.397642,-0.23048 -0.576191,-0.23048 -0.646171,0 -4.256222,-1.82528 -5.535581,-2.79879 -1.50305,-1.14369 -1.785556,-1.461 -2.506305,-2.81329 -0.532561,-0.9992 -0.719778,-3.23109 -0.293008,-3.49485 0.126722,-0.0783 0.299231,-0.48692 0.38344,-0.90797 0.176191,-0.88093 1.382818,-2.18083 2.629297,-2.8324 1.4063,-0.73506 3.312184,-1.02213 6.810954,-1.02213 3.850259,-9.8e-4 5.682295,0.31496 7.604705,1.31463 1.55852,0.81045 3.772378,3.01691 3.772378,3.75947 0,0.26815 0.148821,0.6364 0.33073,0.81854 0.228531,0.22889 0.334399,1.36906 0.342098,3.69075 l 0.01137,3.36 0.914673,-0.0419 c 1.573702,-0.0721 3.496773,-0.37068 5.233789,-0.81235 l 1.672764,-0.42532 -0.118337,-1.87378 c -0.126596,-2.00019 -0.530776,-4.05921 -0.949296,-4.83743 -0.140841,-0.26188 -0.525087,-1.07124 -0.854213,-1.79885 -0.621461,-1.37387 -3.40778,-4.40761 -4.5036,-4.90357 -0.343349,-0.15542 -1.160039,-0.57325 -1.814877,-0.92811 -0.654841,-0.35488 -1.400622,-0.64503 -1.657263,-0.64804 -0.25663,-0.002 -0.673351,-0.1115 -0.926042,-0.24493 -0.252679,-0.13345 -1.471432,-0.44013 -2.708362,-0.68111 -1.41474,-0.27559 -3.547787,-0.38878 -5.764506,-0.37 z m 50.885783,0.016 c -1.535412,0.0109 -2.713219,0.0755 -3.03754,0.20722 -0.372092,0.15118 -1.391337,0.38563 -2.264462,0.52038 -2.306778,0.35597 -3.527707,0.70768 -5.091679,1.46553 -0.76327,0.36983 -1.456621,0.6723 -1.540991,0.6723 -0.08437,0 -0.948415,0.5151 -1.919779,1.14517 -3.351856,2.17427 -5.608969,4.8245 -7.46001,8.75708 -0.578982,1.23005 -1.053165,2.37638 -1.053165,2.54764 0,0.17124 -0.190931,0.92255 -0.424781,1.66968 -0.783502,2.50328 -0.864886,2.93246 -1.158069,6.12106 -0.160561,1.74625 -0.344884,3.33047 -0.409794,3.5202 -0.19005,0.55547 0.652258,10.10753 0.938444,10.64226 0.143439,0.26802 0.26045,0.83404 0.26045,1.2578 0,0.74083 1.177402,4.32017 1.990059,6.05078 0.215326,0.45858 0.391191,0.91385 0.391191,1.01182 0,0.0981 0.515709,0.97322 1.145666,1.94461 2.073722,3.19757 5.921815,6.38852 9.437667,7.82534 0.654844,0.26763 1.428749,0.59185 1.719791,0.72089 0.792472,0.35142 2.862972,0.76639 5.820834,1.16583 2.692728,0.36364 7.384346,0.30967 10.715625,-0.123 0.945888,-0.12285 2.374638,-0.4067 3.175,-0.63045 0.800366,-0.22374 1.990989,-0.55571 2.645832,-0.73793 1.99951,-0.55644 5.561904,-2.7822 7.491024,-4.68085 2.54285,-2.50266 4.87396,-6.51155 5.95519,-10.24022 1.16847,-4.02952 1.86224,-11.31392 1.41852,-14.89831 -0.17457,-1.41023 -0.31652,-3.09195 -0.31523,-3.73724 0.002,-1.12083 -0.323,-2.64698 -1.24591,-5.83841 -1.85403,-6.41119 -5.54844,-11.0495 -10.888234,-13.66996 -2.51161,-1.23256 -2.936757,-1.37715 -6.251817,-2.12545 -1.55784,-0.35168 -6.665929,-0.58788 -10.043832,-0.56377 z m 94.343093,0.7121 -0.54364,1.06555 c -0.29911,0.58629 -0.54415,1.24537 -0.54415,1.46452 0,0.21913 -0.16838,0.78973 -0.37466,1.26762 -0.20627,0.47787 -0.57533,1.58306 -0.8201,2.45618 -0.24477,0.87313 -0.71454,2.42094 -1.04386,3.43959 -0.32933,1.01862 -0.80274,2.56645 -1.05214,3.43958 -0.24941,0.87312 -0.55123,1.82562 -0.67024,2.11667 -0.34474,0.84306 -0.97858,2.77886 -1.47278,4.49791 -0.667,2.32013 -1.16239,3.89716 -1.41387,4.49792 -0.12181,0.29104 -0.43239,1.24354 -0.68988,2.11667 -0.25749,0.87312 -0.73045,2.3614 -1.05109,3.30729 -1.12708,3.32478 -1.46555,4.44024 -1.46555,4.8338 0,0.2185 -0.17742,0.73816 -0.39481,1.15496 -0.21738,0.41683 -0.39608,0.96809 -0.39687,1.22476 -7.9e-4,0.25662 -0.11105,0.67334 -0.24443,0.92604 -0.13337,0.25268 -0.62295,1.70955 -1.08779,3.23752 -0.46484,1.52797 -0.94252,2.97185 -1.06195,3.20858 -0.11944,0.23675 -0.29871,0.86283 -0.39791,1.39165 -0.0992,0.52885 -0.28594,1.02722 -0.41496,1.10691 -0.12903,0.0797 -0.23461,0.43159 -0.23461,0.78187 0,0.35029 -0.16653,1.02796 -0.37052,1.50585 -0.204,0.47787 -0.57613,1.58306 -0.82682,2.45618 -0.25066,0.87313 -0.55989,1.79422 -0.6873,2.0469 -0.12741,0.2527 -0.23203,0.80976 -0.23203,1.23817 0,0.59743 0.13873,0.806 0.59531,0.894 1.16559,0.22453 4.93772,0.18259 5.58106,-0.062 0.44321,-0.16851 0.71294,-0.53115 0.83664,-1.12448 0.10041,-0.48167 0.45524,-1.70936 0.78858,-2.72798 1.04107,-3.18135 1.45883,-4.58592 1.45883,-4.90411 0,-0.16896 0.1709,-0.68247 0.3793,-1.14101 0.20839,-0.45855 0.41844,-1.07167 0.46664,-1.36271 0.0852,-0.51425 0.32196,-0.53116 8.41809,-0.60307 4.58197,-0.0407 8.57864,-0.0147 8.88111,0.0589 0.61314,0.14915 1.16944,1.16203 1.16944,2.12805 0,0.34835 0.11908,0.70694 0.26459,0.79684 0.14552,0.0899 0.26458,0.42035 0.26458,0.73433 0,0.31393 0.16796,1.05116 0.3731,1.63814 0.20515,0.58695 0.56932,1.78149 0.80926,2.65462 0.23994,0.87312 0.54824,1.79422 0.68522,2.04689 0.13699,0.25271 0.24909,0.68445 0.24909,0.95965 0,1.0727 0.39987,1.11971 8.8253,1.0392 5.79575,-0.0554 8.17133,-0.16589 8.39638,-0.39119 0.31544,-0.3158 0.29939,-0.41645 -0.54518,-3.38997 -0.12401,-0.43656 -0.34952,-1.15094 -0.50075,-1.5875 -0.15121,-0.43656 -0.46837,-1.50813 -0.70486,-2.38125 -0.23646,-0.87313 -0.52317,-1.82563 -0.63718,-2.11667 -0.11403,-0.29104 -0.40265,-1.21377 -0.6413,-2.05052 -0.23868,-0.83674 -0.61232,-2.14643 -0.83044,-2.91041 -0.2181,-0.76399 -0.55912,-1.92485 -0.75809,-2.57969 -0.87605,-2.88367 -1.84946,-6.12183 -2.46497,-8.20209 -0.36599,-1.23692 -0.83199,-2.72912 -1.03611,-3.31607 -0.20411,-0.58698 -0.37155,-1.30749 -0.37155,-1.60094 0,-0.29345 -0.11191,-0.64672 -0.24909,-0.78497 -0.13716,-0.13824 -0.36605,-0.72739 -0.50849,-1.30947 -0.27274,-1.11461 -1.37315,-4.95224 -2.02933,-7.07761 -0.89842,-2.90999 -1.23462,-4.08778 -1.42317,-4.9816 -0.10981,-0.52051 -0.29908,-1.10641 -0.42013,-1.30225 -0.12104,-0.19587 -0.30502,-0.78222 -0.40928,-1.30276 -0.10427,-0.52054 -0.43326,-1.66057 -0.73122,-2.5337 -0.29795,-0.87312 -0.75339,-2.30187 -1.01183,-3.175 -0.83945,-2.83602 -0.35515,-2.68039 -8.55296,-2.7523 z m -40.23424,0.0362 c -20.89322,0 -22.88002,0.0374 -23.5691,0.44442 -0.73682,0.43524 -0.75113,0.48916 -0.6966,2.58072 0.0914,3.50506 -0.37118,3.30274 7.73906,3.38634 l 6.85746,0.0708 0.0677,24.31634 c 0.0447,16.10024 0.15912,24.42631 0.33848,24.64242 0.33491,0.40352 17.0319,0.48898 17.77566,0.0909 0.4429,-0.23699 0.4726,-1.60647 0.5364,-24.65017 l 0.0672,-24.39903 6.85798,-0.0708 c 4.5179,-0.0466 6.97777,-0.17012 7.2099,-0.36277 0.48639,-0.40365 0.47339,-4.94101 -0.016,-5.58572 -0.32996,-0.43471 -1.74841,-0.46302 -23.1681,-0.46302 z m -51.759125,3.71914 c 0.828067,-0.0226 1.603941,0.0448 1.943033,0.21137 0.252688,0.12412 0.878445,0.42495 1.390096,0.66919 0.963013,0.45979 2.641183,2.61662 2.641183,3.39412 0,0.24308 0.09971,0.50367 0.221175,0.57878 0.369528,0.22839 1.047378,4.28141 1.487248,8.8904 0.76599,8.02608 0.332796,22.03701 -0.871265,28.17812 -0.515088,2.62713 -2.373183,5.33231 -4.201811,6.11696 -0.7957,0.34144 -3.66178,0.44397 -5.026049,0.17983 -0.863081,-0.16711 -3.131363,-2.3129 -3.502629,-3.3135 -0.176892,-0.47676 -0.424474,-1.06363 -0.550354,-1.30432 -0.316622,-0.60534 -0.971891,-4.80219 -1.295011,-8.29355 -0.627382,-6.77894 -0.530951,-16.54437 0.244429,-24.73854 0.580001,-6.12939 2.133406,-9.15181 5.264278,-10.24279 0.547527,-0.19076 1.427608,-0.30327 2.255677,-0.32607 z m 94.057315,11.09802 c 0.12528,0 0.28759,0.32743 0.36019,0.72761 0.0726,0.40021 0.25885,1.08479 0.41393,1.52135 0.15509,0.43657 0.47563,1.50813 0.7121,2.38125 0.23647,0.87313 0.52369,1.82563 0.63872,2.11667 0.19465,0.49255 0.49873,1.57726 1.07487,3.83646 0.12988,0.50935 0.43161,1.58091 0.67024,2.38125 0.23863,0.80039 0.71532,2.46724 1.05989,3.70416 0.34456,1.23693 0.80482,2.8443 1.02267,3.57188 0.21784,0.72763 0.47504,1.59081 0.57154,1.91823 0.0965,0.32742 0.0724,0.60663 -0.0537,0.62063 -0.12611,0.014 -3.25083,0.0437 -6.94376,0.0662 -5.3046,0.0323 -6.74204,-0.0319 -6.84661,-0.30435 -0.0728,-0.18976 0.048,-0.78507 0.26872,-1.32292 0.38488,-0.938 1.31881,-3.84873 2.22363,-6.93087 0.23496,-0.80036 0.52057,-1.6933 0.63459,-1.98437 0.11402,-0.29104 0.40601,-1.24354 0.64854,-2.11667 0.24253,-0.87312 0.59278,-2.06372 0.77876,-2.64583 0.18599,-0.58206 0.5475,-1.77268 0.80305,-2.64583 0.25555,-0.8731 0.56867,-1.79473 0.69609,-2.0474 0.12742,-0.25271 0.23151,-0.64537 0.23151,-0.87284 0,-0.54964 0.74699,-1.97456 1.03507,-1.97456 z"></path>
  </g>
</svg>